<svg width="18" height="15" viewBox="0 0 18 15" xmlns="http://www.w3.org/2000/svg">
    <path d="M3.012 13.483h7.123a4.3 4.3 0 0 1-.315-.68 4.074 4.074 0 0 1-.191-.741H2.99c-.283 0-.5-.072-.653-.216-.152-.143-.229-.363-.229-.66V4.919c0-.292.077-.51.23-.656.152-.146.37-.219.652-.219h9.434c.287 0 .507.073.66.219.152.146.228.364.228.656v1.818c.119-.022.234-.04.346-.05a3.331 3.331 0 0 1 .67 0c.111.01.22.025.324.043V2.922c0-.743-.188-1.305-.564-1.685-.376-.38-.933-.571-1.671-.571H3.012c-.739 0-1.297.19-1.675.57-.379.381-.568.943-.568 1.686v8.306c0 .742.19 1.304.568 1.685.378.38.936.57 1.675.57zm3.383-7.095H6.8c.118 0 .201-.023.25-.069.047-.045.07-.13.07-.253v-.403c0-.123-.023-.207-.07-.253-.049-.045-.132-.068-.25-.068h-.404c-.123 0-.208.023-.256.068-.048.046-.072.13-.072.253v.403c0 .123.024.208.072.253.048.046.133.069.256.069zm2.236 0h.403c.123 0 .207-.023.253-.069.045-.045.068-.13.068-.253v-.403c0-.123-.023-.207-.068-.253-.046-.045-.13-.068-.253-.068h-.403c-.123 0-.209.023-.257.068-.048.046-.071.13-.071.253v.403c0 .123.023.208.071.253.048.046.134.069.257.069zm2.235 0h.403c.123 0 .208-.023.253-.069.046-.045.069-.13.069-.253v-.403c0-.123-.023-.207-.069-.253-.045-.045-.13-.068-.253-.068h-.403c-.123 0-.208.023-.256.068-.048.046-.072.13-.072.253v.403c0 .123.024.208.072.253.048.046.133.069.256.069zM4.16 8.575h.403c.119 0 .202-.023.25-.068.048-.046.072-.13.072-.253V7.85c0-.119-.024-.2-.072-.247-.048-.045-.131-.068-.25-.068H4.16c-.128 0-.214.023-.26.068-.045.046-.068.128-.068.247v.403c0 .123.023.207.068.253.046.045.132.068.26.068zm2.235 0H6.8c.118 0 .201-.023.25-.068.047-.046.07-.13.07-.253V7.85c0-.119-.023-.2-.07-.247-.049-.045-.132-.068-.25-.068h-.404c-.123 0-.208.023-.256.068-.048.046-.072.128-.072.247v.403c0 .123.024.207.072.253.048.045.133.068.256.068zm2.236 0h.403c.123 0 .207-.023.253-.068.045-.046.068-.13.068-.253V7.85c0-.119-.023-.2-.068-.247-.046-.045-.13-.068-.253-.068h-.403c-.123 0-.209.023-.257.068-.048.046-.071.128-.071.247v.403c0 .123.023.207.071.253.048.045.134.068.257.068zM4.16 10.763h.403c.119 0 .202-.023.25-.069.048-.045.072-.13.072-.253v-.403c0-.118-.024-.2-.072-.246-.048-.046-.131-.068-.25-.068H4.16c-.128 0-.214.022-.26.068-.045.046-.068.128-.068.246v.403c0 .123.023.208.068.253.046.046.132.069.26.069zm2.235 0H6.8c.118 0 .201-.023.25-.069.047-.045.07-.13.07-.253v-.403c0-.118-.023-.2-.07-.246-.049-.046-.132-.068-.25-.068h-.404c-.123 0-.208.022-.256.068-.048.046-.072.128-.072.246v.403c0 .123.024.208.072.253.048.046.133.069.256.069zm2.236 0h.403c.123 0 .207-.023.253-.069.045-.045.068-.13.068-.253v-.403c0-.118-.023-.2-.068-.246-.046-.046-.13-.068-.253-.068h-.403c-.123 0-.209.022-.257.068-.048.046-.071.128-.071.246v.403c0 .123.023.208.071.253.048.046.134.069.257.069zm5.366 3.95c.474 0 .924-.093 1.35-.28.426-.186.8-.441 1.124-.765.324-.324.578-.7.763-1.128.184-.428.277-.882.277-1.36 0-.488-.092-.945-.274-1.37a3.549 3.549 0 0 0-.759-1.125 3.608 3.608 0 0 0-1.12-.763 3.37 3.37 0 0 0-1.361-.276 3.37 3.37 0 0 0-1.36.276 3.65 3.65 0 0 0-1.883 1.89c-.185.424-.278.88-.278 1.368 0 .483.093.938.277 1.367a3.586 3.586 0 0 0 1.884 1.89 3.37 3.37 0 0 0 1.36.277zm-1.634-2.939a.447.447 0 0 1-.342-.147.49.49 0 0 1-.136-.345.48.48 0 0 1 .14-.348.456.456 0 0 1 .338-.144h1.196V9.21c0-.131.046-.244.137-.337a.45.45 0 0 1 .335-.14.45.45 0 0 1 .335.14.467.467 0 0 1 .137.338v2.071a.494.494 0 0 1-.134.349.442.442 0 0 1-.338.143h-1.668z" fill="#3FEBD6" fill-rule="nonzero"/>
</svg>
