<svg width="31" height="43" xmlns="http://www.w3.org/2000/svg" xmlns:xlink="http://www.w3.org/1999/xlink">
    <defs>
        <filter x="-6.6%" y="-4.7%" width="113.2%" height="109.3%" filterUnits="objectBoundingBox" id="b">
            <feGaussianBlur stdDeviation="1.5" in="SourceAlpha" result="shadowBlurInner1"/>
            <feOffset dx="1" dy="1" in="shadowBlurInner1" result="shadowOffsetInner1"/>
            <feComposite in="shadowOffsetInner1" in2="SourceAlpha" operator="arithmetic" k2="-1" k3="1" result="shadowInnerInner1"/>
            <feColorMatrix values="0 0 0 0 0.823529412 0 0 0 0 1 0 0 0 0 0.980392157 0 0 0 0.5 0" in="shadowInnerInner1"/>
        </filter>
        <path d="m350.856 4106.335 4.412 6.926-.943 9.516 3.51-2.93 2.616-8.022 2.412 8.364-2.72 8.483c2.053-1.47 4.567-4.55 4.567-4.55l.554 5.715c-.537 3.902-2.877 6.509-4.044 7.03-1.534.683-2.387 2.063-2.514 2.28l-.017.028-.163 3.797c-.152-.792-.56-2.298-.82-2.86-.235-.508-.351-.363-.414-.148a1.287 1.287 0 0 0-.009.665c.301 1.259 1.363 5.873 1.363 5.873l-1.48.332-.003.001-.047.01h-.001l-1.012-.883-.167 1.269-1.437.5-1.425-.282-.421-1.038-.002-.002-.087.342-.169.664-1.54.585-1.539-.585-.169-.664-.087-.342-.001.002-.422 1.038-1.425.282-1.436-.5-.167-1.27-1.012.885c-.018-.005-.032-.006-.048-.01l-.003-.002-1.48-.332s1.061-4.614 1.362-5.873c.052-.22.055-.45-.009-.665-.062-.215-.178-.36-.414.147-.26.563-.667 2.07-.82 2.861l-.163-3.797s-.863-1.566-2.531-2.309c-1.166-.52-3.507-3.127-4.043-7.03l.554-5.713s2.514 3.08 4.566 4.55l-2.72-8.484 2.412-8.364 2.617 8.022 3.51 2.93-.944-9.516 4.413-6.926zm0 29.889-1.078.565-1.334 2.924.66 1.18 1.752-1.29 1.752 1.29.66-1.18-1.335-2.924-1.077-.565zm8.466-6.182c-1.668-2.053-3.636.402-3.636.402l-2.804 3.856.232 1.617 5.875-2.694s2.002-1.13.333-3.181zm-13.353.336c-.334-.38-2.078-2.184-3.58-.336-1.668 2.051.334 3.18.334 3.18l5.875 2.695.231-1.617-2.803-3.856-.015-.017zm14.652-15.444.223 5.26-.494 4.965 1.63-4.989-1.359-5.236zm-25.621-.39 2.822 3.233v4.618l-2.822-2.463v-5.388zm10.827-9.544.513 6.534-1.984 2.737-1.266-3.592 2.737-5.679zm10.057 0 2.737 5.679-1.266 3.592-1.984-2.737.513-6.534z" id="a"/>
    </defs>
    <g transform="translate(-335 -4105)" fill="none" fill-rule="evenodd">
        <use fill="#FF9921" xlink:href="#a"/>
        <use fill="#000" filter="url(#b)" xlink:href="#a"/>
    </g>
</svg>
