<svg width="37" height="32" xmlns="http://www.w3.org/2000/svg">
    <defs>
        <filter x="-63.2%" y="-85.7%" width="226.3%" height="271.4%" filterUnits="objectBoundingBox" id="a">
            <feOffset dy="2" in="SourceAlpha" result="shadowOffsetOuter1"/>
            <feGaussianBlur stdDeviation="2" in="shadowOffsetOuter1" result="shadowBlurOuter1"/>
            <feColorMatrix values="0 0 0 0 0 0 0 0 0 0 0 0 0 0 0 0 0 0 0.5 0" in="shadowBlurOuter1" result="shadowMatrixOuter1"/>
            <feMerge>
                <feMergeNode in="shadowMatrixOuter1"/>
                <feMergeNode in="SourceGraphic"/>
            </feMerge>
        </filter>
    </defs>
    <g filter="url(#a)" transform="translate(9 9)" fill="#FF9921" fill-rule="nonzero">
        <path d="M12.946 12.65c.489.635 1.075 1.35 1.075 1.35C17.617 13.882 19 11.465 19 11.465a22.771 22.771 0 0 0-2.344-9.722 7.94 7.94 0 0 0-4.57-1.736l-.229.267c2.766.868 4.052 2.118 4.052 2.118a13.057 13.057 0 0 0-4.895-1.6 13.441 13.441 0 0 0-3.285.034 1.566 1.566 0 0 0-.278.035 11.995 11.995 0 0 0-3.684 1.042c-.616.291-.968.482-.968.482S4.14 1.07 7.08.201L6.915 0a7.94 7.94 0 0 0-4.571 1.736A22.771 22.771 0 0 0 0 11.458s1.366 2.43 4.963 2.535c0 0 .602-.75 1.091-1.389-2.066-.632-2.846-1.965-2.846-1.965s.164.118.455.285c.019.02.04.036.064.048.05.035.097.049.147.084.384.216.78.405 1.19.566a13.41 13.41 0 0 0 2.39.715c1.392.268 2.82.268 4.213 0a10.52 10.52 0 0 0 2.344-.715 9.23 9.23 0 0 0 1.871-.983s-.803 1.396-2.936 2.01zm-6.028-2.324c-.904 0-1.647-.857-1.647-1.906a1.742 1.742 0 0 1 .76-1.657 1.608 1.608 0 0 1 1.77 0c.541.354.837.999.761 1.657a1.85 1.85 0 0 1-.442 1.31 1.72 1.72 0 0 1-1.208.6l.006-.004zm5.89 0c-.907.004-1.637-.84-1.637-1.902.097-.92.879-1.594 1.768-1.527.89.067 1.569.853 1.536 1.777-.032.924-.765 1.656-1.657 1.656l-.01-.004z"/>
    </g>
</svg>
