<svg width="40" height="45" xmlns="http://www.w3.org/2000/svg" xmlns:xlink="http://www.w3.org/1999/xlink">
    <defs>
        <filter x="-5.1%" y="-4.4%" width="110.2%" height="108.9%" filterUnits="objectBoundingBox" id="b">
            <feGaussianBlur stdDeviation="1.5" in="SourceAlpha" result="shadowBlurInner1"/>
            <feOffset dx="1" dy="1" in="shadowBlurInner1" result="shadowOffsetInner1"/>
            <feComposite in="shadowOffsetInner1" in2="SourceAlpha" operator="arithmetic" k2="-1" k3="1" result="shadowInnerInner1"/>
            <feColorMatrix values="0 0 0 0 0.823628049 0 0 0 0 1 0 0 0 0 0.978466215 0 0 0 1 0" in="shadowInnerInner1"/>
        </filter>
        <path d="m227.443 4118.019-.891-1.242-1.003-.75 3.066 1.482-1.172.51zm-12.62 23.038zm-.027-.3zm-.04-.3zm-.06-.317zm-.07-.302zm-.078-.278.03.1-.03-.1zm-.089-.27zm-.093-.254.022.056-.022-.056zm.458 2.78zm-.024.288.006-.056-.006.056zm.034-.594zm-1.078 3.622.01-.016-.01.016zm-.221.362.05-.078-.05.078zm-.225.33zm-.238.332zm-.253.33zm-.269.33zm-.286.33zm-.304.332zm-.32.332zm14.878-14.7zm.336.34zm.279.305zm.152.172-.1-.114.1.114zm.17.2zm.159.21-.065-.083.065.083zm.196.27-.052-.074.052.074zm.15.22-.044-.066.044.066zm.294.487-.021-.039.021.039zm.127.24-.02-.04.02.04zm.23.518-.017-.045.017.045zm.092.252-.02-.058.02.058zm-2.035-3.066a13.323 13.323 0 0 0-.125-.125l.125.125zm5.546-8.711c1.445-.532 2.484-1.59 3.009-3.329-2.132-.57-3.908-1.569-5.454-3.134l.19-1.35-5.291-3.637c-1.927-2.31-3.074-5.03-3.577-8.097-.198 2.725.147 5.239.927 7.587-2.61-1.576-4.598-3.817-6.075-6.596a19.377 19.377 0 0 0 2.937 6.391c-9.704-1.745-15.391 4.52-14.809 11.321.295 3.461 2.071 6.352 4.598 8.642.681.617 1.514 1.324 2.344 2.122-.405 5.873-6.49 1.335-8.74-4.046-3.242-7.756-1.56-13.12 3.333-15.346 1.162-1.34 2.614-2.377 4.235-3.088-4.921 1.03-9.555 3.558-13.84 6.373-.022 14.125 5.23 23.288 15.3 29.784a47.23 47.23 0 0 0 3.139 1.856c6.435-3.497 11.242-7.827 14.333-13.443 1.726-3.142 2.92-6.685 3.556-10.714-1.168 3.44-2.988 6.054-6.216 6.883l.04.037c-2.537-2.326-6.266-4.23-8.92-5.832-5.198-3.142-3.836-7.863 3.178-7.2-.377.895-.967 1.724-1.747 2.5 6.425.869 8.413 2.452 7.629 4.484 1.582-.132 2.844-.818 3.717-2.172-1.398.532-1.902.065-1.69-1.203-7.686-.797.91-6.847 1.45-.434 3.537-2.169 3.433.793 2.444 1.64z" id="a"/>
    </defs>
    <g transform="translate(-196 -4105)" fill="none" fill-rule="evenodd">
        <use fill="#FF9921" xlink:href="#a"/>
        <use fill="#000" filter="url(#b)" xlink:href="#a"/>
    </g>
</svg>
