<svg width="53" height="60" xmlns="http://www.w3.org/2000/svg" xmlns:xlink="http://www.w3.org/1999/xlink">
    <defs>
        <filter x="-3.8%" y="-3.3%" width="107.6%" height="106.7%" filterUnits="objectBoundingBox" id="b">
            <feGaussianBlur stdDeviation="1.5" in="SourceAlpha" result="shadowBlurInner1"/>
            <feOffset dx="1" dy="1" in="shadowBlurInner1" result="shadowOffsetInner1"/>
            <feComposite in="shadowOffsetInner1" in2="SourceAlpha" operator="arithmetic" k2="-1" k3="1" result="shadowInnerInner1"/>
            <feColorMatrix values="0 0 0 0 0.823628049 0 0 0 0 1 0 0 0 0 0.978466215 0 0 0 1 0" in="shadowInnerInner1"/>
        </filter>
        <path d="m1322.924 4113.359-1.188-1.657-1.338-1 4.089 1.977-1.563.68zm-16.828 30.717zm-.035-.399zm-.054-.4zm-.079-.424zm-.094-.402zm-.104-.371.04.133-.04-.133zm-.118-.361zm-.124-.338.03.076-.03-.076zm.61 3.706zm-.031.385.007-.075-.007.075zm.045-.792zm-1.437 4.829.012-.02-.012.02zm-.295.483.066-.104-.066.104zm-.3.44zm-.318.443zm-.336.44zm-.36.44zm-.381.44zm-.405.442zm-.427.443zm19.838-19.601zm.448.455zm.371.405zm.203.23-.133-.151.133.151zm.226.266zm.212.282c-.028-.038-.057-.074-.086-.111l.086.11zm.262.358-.068-.097.068.097zm.2.295-.059-.09.06.09zm.392.648-.028-.05.028.05zm.17.321-.028-.054.028.054zm.307.69-.024-.06.024.06zm.122.336-.027-.076c.01.025.018.05.027.076zm-2.713-4.087-.168-.168.168.168zm7.394-11.616c1.928-.708 3.313-2.12 4.012-4.438-2.842-.76-5.21-2.092-7.271-4.179l.254-1.8-7.056-4.85c-2.57-3.078-4.099-6.707-4.77-10.795-.263 3.634.197 6.985 1.237 10.116-3.48-2.102-6.13-5.09-8.1-8.795.833 3.232 2.17 6.047 3.915 8.522-12.938-2.327-20.52 6.027-19.744 15.094.393 4.615 2.76 8.47 6.13 11.524.909.821 2.019 1.764 3.126 2.828-.54 7.83-8.653 1.78-11.653-5.395-4.324-10.34-2.08-17.493 4.444-20.46 1.548-1.787 3.484-3.17 5.646-4.118-6.562 1.374-12.74 4.744-18.455 8.498-.029 18.833 6.975 31.05 20.401 39.71a62.975 62.975 0 0 0 4.185 2.476c8.58-4.663 14.99-10.437 19.112-17.924 2.301-4.189 3.892-8.914 4.741-14.285-1.558 4.586-3.984 8.071-8.288 9.177l.053.05c-3.383-3.102-8.354-5.64-11.893-7.777-6.932-4.189-5.115-10.484 4.237-9.599-.503 1.192-1.29 2.299-2.33 3.332 8.567 1.159 11.217 3.27 10.172 5.98 2.11-.177 3.792-1.092 4.957-2.896-1.865.708-2.536.086-2.253-1.604-10.248-1.063 1.213-9.13 1.932-.58 4.717-2.891 4.577 1.058 3.26 2.188z" id="a"/>
    </defs>
    <g transform="translate(-1281 -4096)" fill="none" fill-rule="evenodd">
        <use fill="#FF9921" xlink:href="#a"/>
        <use fill="#000" filter="url(#b)" xlink:href="#a"/>
    </g>
</svg>
