<svg width="48" height="60" xmlns="http://www.w3.org/2000/svg" xmlns:xlink="http://www.w3.org/1999/xlink">
    <defs>
        <filter x="-4.2%" y="-3.3%" width="108.4%" height="106.7%" filterUnits="objectBoundingBox" id="b">
            <feGaussianBlur stdDeviation="1.5" in="SourceAlpha" result="shadowBlurInner1"/>
            <feOffset dx="1" dy="1" in="shadowBlurInner1" result="shadowOffsetInner1"/>
            <feComposite in="shadowOffsetInner1" in2="SourceAlpha" operator="arithmetic" k2="-1" k3="1" result="shadowInnerInner1"/>
            <feColorMatrix values="0 0 0 0 0.823529412 0 0 0 0 1 0 0 0 0 0.980392157 0 0 0 0.5 0" in="shadowInnerInner1"/>
        </filter>
        <path d="M1217.139 4103.118c8.296 3.749 7.82 8.756 7.912 13.304l.01.4c.025.865.081 1.71.234 2.525l.001.001c.146.78.38 1.531.758 2.244l.001.003c.037.07.076.139.115.208l.008.012c.037.064.076.129.116.193l.009.014a6.7 6.7 0 0 0 .125.19l.022.032c.04.06.082.118.126.177l.01.013a7.107 7.107 0 0 0 .32.4l.003.002c3.477 3.289 6.539 6.71 5.632 11.53 2.537-.098 4.59-1.488 5.994-4.644 1.697 8.06-3.92 13.278-9.874 17.895l-.628.484c-4.293 3.292-8.635 6.314-10.428 9.899-.89-2.562-2.688-4.882-4.633-7.148l-.405-.468a179.05 179.05 0 0 0-.407-.467l-.408-.466c-4.424-5.047-8.798-10.018-4.565-17.03.371 5.207 4.837 9.092 9.93 7.975 3.276-.717 5.432-2.916 5.914-5.827v-.011c.2-1.226.107-2.577-.326-3.996l-.007-.024a10.75 10.75 0 0 0-.1-.31l-.017-.05c-.038-.11-.078-.221-.12-.332l-.015-.036a12.615 12.615 0 0 0-.115-.29l-.035-.083a12.279 12.279 0 0 0-.142-.326c-2.222-3.103-4.99-4.845-5.015-9.528-.01-1.758.602-3.694 1.079-5.833l.018-.082a60.32 60.32 0 0 0 .097-.453l.006-.027c.045-.22.088-.44.128-.665l.008-.043a20.301 20.301 0 0 0 .1-.609l.013-.091.034-.25.012-.087a16.968 16.968 0 0 0 .113-1.245c.114-2.172-.225-4.525-1.608-7.08zm-10.326-5.118c.169.08.332.16.493.24l.114.058c.142.072.281.145.418.218l.046.025c8.074 4.361 6.872 10.871 5.348 17.15l-.17.696-.17.694c-1.184 4.846-2.16 9.445 1.282 12.676l.006.003a9.1 9.1 0 0 0 .98.8c-3.722.652-6.848-1.215-8.115-4.837-4.734 3.865-6.765 10.544-4.98 16.908v.002l.142.477c.198.636.435 1.268.71 1.893l.01.019c.049.112.1.224.152.336 2.01 2.872 4.616 5.512 7.27 8.085-13.303-6.698-24.092-13.862-17.21-31.814.427 2.676 1.295 4.51 2.693 5.327 1.018-3.664 2.968-6.898 4.977-10.015l.464-.718.463-.714c3.548-5.467 6.856-10.722 5.077-17.509z" id="a"/>
    </defs>
    <g transform="translate(-1191 -4098)" fill="none" fill-rule="evenodd">
        <use fill="#FF9921" xlink:href="#a"/>
        <use fill="#000" filter="url(#b)" xlink:href="#a"/>
    </g>
</svg>
