<svg width="36" height="45" xmlns="http://www.w3.org/2000/svg" xmlns:xlink="http://www.w3.org/1999/xlink">
    <defs>
        <filter x="-5.6%" y="-4.4%" width="111.1%" height="108.9%" filterUnits="objectBoundingBox" id="b">
            <feGaussianBlur stdDeviation="1.5" in="SourceAlpha" result="shadowBlurInner1"/>
            <feOffset dx="1" dy="1" in="shadowBlurInner1" result="shadowOffsetInner1"/>
            <feComposite in="shadowOffsetInner1" in2="SourceAlpha" operator="arithmetic" k2="-1" k3="1" result="shadowInnerInner1"/>
            <feColorMatrix values="0 0 0 0 0.823529412 0 0 0 0 1 0 0 0 0 0.980392157 0 0 0 0.5 0" in="shadowInnerInner1"/>
        </filter>
        <path d="M286.604 4108.839c7.594 3.431 5.387 8.269 6.117 12.171a5.861 5.861 0 0 0 .657 1.842l.005.009c.028.049.057.097.088.145l.006.01c.03.048.062.096.094.144l.016.023c.031.044.062.089.095.133l.007.01a5.33 5.33 0 0 0 .24.3h.003c2.608 2.467 4.904 5.034 4.224 8.648 1.902-.073 3.443-1.115 4.495-3.483 2.234 10.606-12.417 14.652-15.697 21.209-.623-1.793-1.839-3.428-3.184-5.02l-.353-.414c-3.559-4.133-7.725-8.039-4.276-13.75.278 3.905 3.627 6.818 7.447 5.981 2.457-.538 4.074-2.187 4.436-4.37l-.001-.008c.15-.92.08-1.933-.244-2.998l-.005-.017a8.062 8.062 0 0 0-.076-.232l-.013-.039a8.24 8.24 0 0 0-.09-.249l-.01-.027a9.461 9.461 0 0 0-.087-.217l-.026-.062a9.21 9.21 0 0 0-.107-.245c-1.666-2.327-3.742-3.633-3.76-7.146-.008-1.318.451-2.77.808-4.374l.014-.062.03-.137.043-.203.004-.02a20.811 20.811 0 0 0 .177-.988l.01-.068c.01-.062.018-.125.026-.187l.009-.066.03-.251c.024-.228.042-.454.054-.683l.012-.288c.041-1.549-.242-3.218-1.218-5.021zM278.86 4105c.126.06.249.12.37.18l.085.043c.106.054.211.109.313.164l.035.018c5.664 3.06 5.242 7.529 4.228 11.947l-.124.53-.063.264-.129.528c-.947 3.866-1.927 7.58.806 10.144l.004.002c.22.207.464.408.735.6-2.792.49-5.136-.911-6.086-3.628-3.55 2.9-5.074 7.908-3.735 12.682l.134.448c.143.447.311.89.505 1.33l.007.015c.037.084.075.168.115.252 1.507 2.153 3.461 4.133 5.452 6.063l-.596-.302c-9.7-4.94-17.37-10.363-12.312-23.558.32 2.007.971 3.382 2.02 3.995 2.231-8.033 10.44-13.307 8.236-21.717z" id="a"/>
    </defs>
    <g transform="translate(-267 -4105)" fill="none" fill-rule="evenodd">
        <use fill="#FF9921" xlink:href="#a"/>
        <use fill="#000" filter="url(#b)" xlink:href="#a"/>
    </g>
</svg>
