<svg width="68" height="99" xmlns="http://www.w3.org/2000/svg">
    <defs>
        <linearGradient x1="50%" y1="1.069%" x2="50%" y2="98.259%" id="a">
            <stop stop-color="#46FFDE" offset="0%"/>
            <stop stop-color="#32C4FC" offset="100%"/>
        </linearGradient>
    </defs>
    <g fill="none" fill-rule="evenodd">
        <path d="M33.723 2.917a9.24 9.24 0 0 1 5.27 1.647l23.723 16.442a9.25 9.25 0 0 1 3.98 7.603v41.767a9.25 9.25 0 0 1-3.998 7.615L38.836 94.448a9.24 9.24 0 0 1-5.273 1.635 9.24 9.24 0 0 1-5.265-1.66L4.713 77.996a9.25 9.25 0 0 1-3.963-7.59V28.609a9.25 9.25 0 0 1 3.98-7.603L28.455 4.564a9.24 9.24 0 0 1 5.27-1.647z" stroke="url(#a)" stroke-width="1.5" fill-opacity=".1" fill="#FFF"/>
        <path d="M30.769 66a6.011 6.011 0 0 1-6.012-6.011V41.954a6.011 6.011 0 0 1 3.246-5.29 6.011 6.011 0 0 1 6.192.421l12.895 9.017a6.011 6.011 0 0 1 0 9.739l-12.895 9.017A6.011 6.011 0 0 1 30.77 66zm0-25.428a1.833 1.833 0 0 0-.692.15 1.503 1.503 0 0 0-.781 1.232V59.99c.01.54.307 1.033.781 1.292a1.383 1.383 0 0 0 1.503 0l12.895-9.017a1.413 1.413 0 0 0 0-2.345L31.58 40.902a1.383 1.383 0 0 0-.811-.39v.06z" fill="#3FEBD6" fill-rule="nonzero"/>
    </g>
</svg>
