<?xml version="1.0" encoding="UTF-8"?>
<svg width="229px" height="62px" viewBox="0 0 229 62" version="1.1" xmlns="http://www.w3.org/2000/svg" xmlns:xlink="http://www.w3.org/1999/xlink">
    <title>423D8005-F483-46A7-8D7A-2107B3195B87</title>
    <defs>
        <filter x="-66.7%" y="-66.7%" width="233.3%" height="233.3%" filterUnits="objectBoundingBox" id="filter-1">
            <feOffset dx="0" dy="0" in="SourceAlpha" result="shadowOffsetOuter1"></feOffset>
            <feGaussianBlur stdDeviation="5" in="shadowOffsetOuter1" result="shadowBlurOuter1"></feGaussianBlur>
            <feColorMatrix values="0 0 0 0 0.247058824   0 0 0 0 0.921568627   0 0 0 0 0.839215686  0 0 0 1 0" type="matrix" in="shadowBlurOuter1" result="shadowMatrixOuter1"></feColorMatrix>
            <feMerge>
                <feMergeNode in="shadowMatrixOuter1"></feMergeNode>
                <feMergeNode in="SourceGraphic"></feMergeNode>
            </feMerge>
        </filter>
        <filter x="-68.4%" y="-68.4%" width="236.8%" height="236.8%" filterUnits="objectBoundingBox" id="filter-2">
            <feOffset dx="0" dy="0" in="SourceAlpha" result="shadowOffsetOuter1"></feOffset>
            <feGaussianBlur stdDeviation="5" in="shadowOffsetOuter1" result="shadowBlurOuter1"></feGaussianBlur>
            <feColorMatrix values="0 0 0 0 0.247058824   0 0 0 0 0.921568627   0 0 0 0 0.839215686  0 0 0 1 0" type="matrix" in="shadowBlurOuter1" result="shadowMatrixOuter1"></feColorMatrix>
            <feMerge>
                <feMergeNode in="shadowMatrixOuter1"></feMergeNode>
                <feMergeNode in="SourceGraphic"></feMergeNode>
            </feMerge>
        </filter>
        <filter x="-66.7%" y="-66.7%" width="233.3%" height="233.3%" filterUnits="objectBoundingBox" id="filter-3">
            <feOffset dx="0" dy="0" in="SourceAlpha" result="shadowOffsetOuter1"></feOffset>
            <feGaussianBlur stdDeviation="5" in="shadowOffsetOuter1" result="shadowBlurOuter1"></feGaussianBlur>
            <feColorMatrix values="0 0 0 0 0.247058824   0 0 0 0 0.921568627   0 0 0 0 0.839215686  0 0 0 1 0" type="matrix" in="shadowBlurOuter1" result="shadowMatrixOuter1"></feColorMatrix>
            <feMerge>
                <feMergeNode in="shadowMatrixOuter1"></feMergeNode>
                <feMergeNode in="SourceGraphic"></feMergeNode>
            </feMerge>
        </filter>
        <filter x="-68.3%" y="-68.3%" width="236.7%" height="236.7%" filterUnits="objectBoundingBox" id="filter-4">
            <feMorphology radius="0.5" operator="dilate" in="SourceAlpha" result="shadowSpreadOuter1"></feMorphology>
            <feOffset dx="0" dy="0" in="shadowSpreadOuter1" result="shadowOffsetOuter1"></feOffset>
            <feGaussianBlur stdDeviation="5" in="shadowOffsetOuter1" result="shadowBlurOuter1"></feGaussianBlur>
            <feComposite in="shadowBlurOuter1" in2="SourceAlpha" operator="out" result="shadowBlurOuter1"></feComposite>
            <feColorMatrix values="0 0 0 0 1   0 0 0 0 0.6   0 0 0 0 0.129411765  0 0 0 1 0" type="matrix" in="shadowBlurOuter1" result="shadowMatrixOuter1"></feColorMatrix>
            <feMerge>
                <feMergeNode in="shadowMatrixOuter1"></feMergeNode>
                <feMergeNode in="SourceGraphic"></feMergeNode>
            </feMerge>
        </filter>
        <filter x="-66.7%" y="-66.7%" width="233.3%" height="233.3%" filterUnits="objectBoundingBox" id="filter-5">
            <feOffset dx="0" dy="0" in="SourceAlpha" result="shadowOffsetOuter1"></feOffset>
            <feGaussianBlur stdDeviation="5" in="shadowOffsetOuter1" result="shadowBlurOuter1"></feGaussianBlur>
            <feColorMatrix values="0 0 0 0 0.247058824   0 0 0 0 0.921568627   0 0 0 0 0.839215686  0 0 0 1 0" type="matrix" in="shadowBlurOuter1" result="shadowMatrixOuter1"></feColorMatrix>
            <feMerge>
                <feMergeNode in="shadowMatrixOuter1"></feMergeNode>
                <feMergeNode in="SourceGraphic"></feMergeNode>
            </feMerge>
        </filter>
    </defs>
    <g id="2k" stroke="none" stroke-width="1" fill="none" fill-rule="evenodd">
        <g id="Components" transform="translate(-926.000000, -6986.000000)" fill-rule="nonzero">
            <g id="Group-13" transform="translate(942.000000, 7002.000000)">
                <g id="dice-2" filter="url(#filter-1)" transform="translate(42.000000, 0.000000)" fill="#3FEBD6">
                    <path d="M10.9,13.3333333 C10.5628239,13.3375068 10.2382636,13.2052786 10,12.9666667 C9.88701638,12.8510713 9.79658148,12.715419 9.73333333,12.5666667 C9.66686901,12.4142252 9.63281547,12.2496331 9.63332751,12.0833333 C9.6424396,11.6825934 9.84317789,11.3105295 10.1731041,11.0828804 C10.5030304,10.8552313 10.9221178,10.7996154 11.3,10.9333333 C11.4487523,10.9965815 11.5844047,11.0870164 11.7,11.2 C11.9344875,11.4341956 12.0663749,11.7519244 12.0666725,12.0833333 C12.0671845,12.2496331 12.033131,12.4142252 11.9666667,12.5666667 C11.8415035,12.8684091 11.6017424,13.1081702 11.3,13.2333333 C11.1734347,13.2894947 11.0381042,13.3233273 10.9,13.3333333 Z" id="Path"></path>
                    <path d="M17.4333333,20 C16.7429774,20 16.1833333,19.4403559 16.1833333,18.75 C16.1580593,18.5898801 16.1580593,18.4267866 16.1833333,18.2666667 C16.2525772,18.1171606 16.3486042,17.9815929 16.4666667,17.8666667 C16.5775832,17.74804 16.7145049,17.6567588 16.8666667,17.6 C17.1694328,17.4673076 17.5139005,17.4673076 17.8166667,17.6 C17.975697,17.6525902 18.1189697,17.7442847 18.2333333,17.8666667 C18.346317,17.982262 18.4367519,18.1179144 18.5,18.2666667 C18.5664643,18.4191081 18.6005179,18.5837002 18.6000058,18.75 C18.5997082,19.0814089 18.4678208,19.3991377 18.2333333,19.6333333 C18.1144727,19.7501963 17.972569,19.8410147 17.8166667,19.9 C17.6958703,19.9559141 17.5660499,19.9897802 17.4333333,20 L17.4333333,20 Z" id="Path"></path>
                    <path d="M22.9833333,29.65 L6.31666667,29.65 C4.63592136,29.6680256 3.01875796,29.0083115 1.83022321,27.8197768 C0.641688453,26.631242 -0.0180256388,25.0140786 1.1101146e-15,23.3333333 L1.1101146e-15,6.66666667 C1.1101146e-15,3.21488698 2.79822031,0.416666667 6.25,0.416666667 L22.9166667,0.416666667 C24.5857904,0.398861664 26.1926829,1.04947331 27.3792437,2.22351105 C28.5658045,3.39754879 29.2336894,4.99744794 29.2333333,6.66666667 L29.2333333,23.3333333 C29.2511383,25.0024571 28.6005267,26.6093495 27.4264889,27.7959103 C26.2524512,28.9824712 24.6525521,29.6503599 22.9833333,29.65 Z M6.31666667,2.98333333 C5.32205945,2.9654942 4.36111806,3.34357333 3.64531954,4.03436579 C2.92952101,4.72515826 2.51752478,5.67205386 2.5,6.66666667 L2.5,23.3333333 C2.5,25.4044011 4.17893219,27.0833333 6.25,27.0833333 L22.9166667,27.0833333 C23.9112285,27.0833333 24.8650557,26.6882452 25.5683171,25.9849838 C26.2715785,25.2817223 26.6666667,24.3278952 26.6666667,23.3333333 L26.6666667,6.66666667 C26.6666667,5.67210483 26.2715785,4.71827766 25.5683171,4.01501624 C24.8650557,3.31175482 23.9112285,2.91666667 22.9166667,2.91666667 L6.31666667,2.98333333 Z" id="Shape"></path>
                </g>
                <g id="dice-4" filter="url(#filter-2)" transform="translate(127.000000, 0.000000)" fill="#3FEBD6">
                    <path d="M9.26684388,10.8335105 C8.92964402,10.8516279 8.59945935,10.7325458 8.35144675,10.5033695 C8.10343414,10.2741933 7.95869582,9.95442264 7.9501714,9.61684388 C7.94965935,9.45054408 7.98371289,9.28595197 8.05017722,9.13351055 C8.10693605,8.9813488 8.19821721,8.84442707 8.31684388,8.73351055 C8.67082347,8.37850849 9.20446943,8.27309694 9.66684388,8.46684388 C9.82587425,8.51943404 9.96914695,8.61112856 10.0835105,8.73351055 C10.1964942,8.84910588 10.2869291,8.98475823 10.3501772,9.13351055 C10.4398071,9.28077899 10.4966526,9.44563109 10.5168439,9.61684388 C10.5165521,9.9482528 10.3846647,10.2659816 10.1501772,10.5001772 C10.0313166,10.6170402 9.88941287,10.7078586 9.73351055,10.7668439 C9.58447137,10.8220212 9.42537114,10.8447498 9.26684388,10.8335105 Z" id="Path"></path>
                    <path d="M19.9001772,10.8335105 C19.7392328,10.8341972 19.5800419,10.8000849 19.4335105,10.7335105 C19.2795565,10.6707079 19.1383548,10.5803389 19.0168439,10.4668439 C18.9038603,10.3512485 18.8134254,10.2155962 18.7501772,10.0668439 C18.6892343,9.92434054 18.6553245,9.77174625 18.6501714,9.61684388 C18.6496594,9.45054408 18.6837129,9.28595197 18.7501772,9.13351055 C18.8134254,8.98475823 18.9038603,8.84910588 19.0168439,8.73351055 C19.1340491,8.61458811 19.2764315,8.52346338 19.4335105,8.46684388 C19.895885,8.27309694 20.429531,8.37850849 20.7835105,8.73351055 C21.017998,8.96770615 21.1498855,9.28543496 21.1501714,9.61684388 C21.1463869,9.78118298 21.1183052,9.94405726 21.0668439,10.1001772 C20.9976001,10.2496833 20.901573,10.385251 20.7835105,10.5001772 C20.5439625,10.7224897 20.2268751,10.8421453 19.9001772,10.8335105 Z" id="Path"></path>
                    <path d="M9.26684388,20.8335207 C8.76160779,20.8330662 8.30631762,20.5285188 8.11303225,20.0617164 C7.91974689,19.594914 8.02647671,19.0576552 8.38351055,18.7001772 C8.73749013,18.3451752 9.2711361,18.2397636 9.73351055,18.4335105 C9.89254092,18.4861007 10.0358136,18.5777952 10.1501772,18.7001772 C10.6375995,19.1882065 10.6375995,19.9788146 10.1501772,20.4668439 C10.0313166,20.5837069 9.88941287,20.6745253 9.73351055,20.7335105 C9.58697922,20.8000849 9.42778828,20.8341972 9.26684388,20.8335207 L9.26684388,20.8335207 Z" id="Path"></path>
                    <path d="M19.9001772,20.8335207 C19.7392328,20.8341972 19.5800419,20.8000849 19.4335105,20.7335105 C19.2795565,20.6707079 19.1383548,20.5803389 19.0168439,20.4668439 C18.7823564,20.2326483 18.650469,19.9149195 18.6501714,19.5835105 C18.6496594,19.4172107 18.6837129,19.2526186 18.7501772,19.1001772 C18.8134254,18.9514249 18.9038603,18.8157726 19.0168439,18.7001772 C19.1312075,18.5777952 19.2744802,18.4861007 19.4335105,18.4335105 C19.895885,18.2397636 20.429531,18.3451752 20.7835105,18.7001772 C20.901573,18.8151035 20.9976001,18.9506711 21.0668439,19.1001772 C21.1200973,19.2558446 21.1482271,19.4189978 21.1501714,19.5835105 C21.1501714,20.2738665 20.5905332,20.8335207 19.9001772,20.8335207 L19.9001772,20.8335207 Z" id="Path"></path>
                    <path d="M22.9501772,29.2336 L6.28351055,29.2336 C4.61434651,29.2424368 3.01096455,28.5833114 1.83067047,27.4030173 C0.650376378,26.2227232 -0.00874898744,24.6193413 8.77204961e-05,22.9501772 L8.77204961e-05,6.28351055 C-0.00874898744,4.61434651 0.650376378,3.01096455 1.83067047,1.83067047 C3.01096455,0.650376378 4.61434651,-0.00874898744 6.28351055,8.77204966e-05 L22.9501772,8.77204966e-05 C24.6193413,-0.00874898744 26.2227232,0.650376378 27.4030173,1.83067047 C28.5833114,3.01096455 29.2424368,4.61434651 29.2336,6.28351055 L29.2336,22.9501772 C29.2424368,24.6193413 28.5833114,26.2227232 27.4030173,27.4030173 C26.2227232,28.5833114 24.6193413,29.2424368 22.9501772,29.2336 Z M6.28351055,2.50002752 C5.27738096,2.49119338 4.30984672,2.88690789 3.5983773,3.5983773 C2.88690789,4.30984672 2.49119338,5.27738096 2.50002752,6.28351055 L2.50002752,22.9501772 C2.49119338,23.9563068 2.88690789,24.923841 3.5983773,25.6353105 C4.30984672,26.3467799 5.27738096,26.7424944 6.28351055,26.7336602 L22.9501772,26.7336602 C23.9563068,26.7424944 24.923841,26.3467799 25.6353105,25.6353105 C26.3467799,24.923841 26.7424944,23.9563068 26.7336602,22.9501772 L26.7336602,6.28351055 C26.7424944,5.27738096 26.3467799,4.30984672 25.6353105,3.5983773 C24.923841,2.88690789 23.9563068,2.49119338 22.9501772,2.50002752 L6.28351055,2.50002752 Z" id="Shape"></path>
                </g>
                <g id="dice-5" filter="url(#filter-3)" transform="translate(168.000000, 0.000000)" fill="#3FEBD6">
                    <path d="M9.65,11.2166667 C9.48370019,11.2171845 9.31910809,11.183131 9.16666667,11.1166667 C9.01791435,11.0534185 8.882262,10.9629836 8.76666667,10.85 C8.64803999,10.7390835 8.55675883,10.6021617 8.5,10.45 C8.29863316,9.9830333 8.40452321,9.44034681 8.76666667,9.08333333 C8.87758318,8.96470666 9.01450492,8.8734255 9.16666667,8.81666667 C9.46943284,8.68397422 9.81390049,8.68397422 10.1166667,8.81666667 C10.275697,8.86925682 10.4189697,8.96095135 10.5333333,9.08333333 C10.646317,9.19892867 10.7367519,9.33458102 10.8,9.48333333 C10.8711516,9.64603497 10.9053061,9.8225001 10.9,10 C10.8991219,10.1661561 10.865126,10.3304699 10.8,10.4833333 C10.7367519,10.6320856 10.646317,10.767738 10.5333333,10.8833333 C10.4144727,11.0001963 10.272569,11.0910147 10.1166667,11.15 C9.96762748,11.2051773 9.80852725,11.2279059 9.65,11.2166667 Z" id="Path"></path>
                    <path d="M15,16.2500102 C14.8337002,16.2505179 14.6691081,16.2164643 14.5166667,16.15 C14.3679144,16.0867519 14.232262,15.996317 14.1166667,15.8833333 C13.6292444,15.3953041 13.6292444,14.6046959 14.1166667,14.1166667 C14.232262,14.003683 14.3679144,13.9132481 14.5166667,13.85 C14.8194328,13.7173076 15.1639005,13.7173076 15.4666667,13.85 C15.622569,13.9089853 15.7644727,13.9998037 15.8833333,14.1166667 C16.3707556,14.6046959 16.3707556,15.3953041 15.8833333,15.8833333 C15.7644727,16.0001963 15.622569,16.0910147 15.4666667,16.15 C15.3201353,16.2165743 15.1609444,16.2506867 15,16.2500102 L15,16.2500102 Z" id="Path"></path>
                    <path d="M20.2833333,11.2166768 C20.1223889,11.2173533 19.963198,11.183241 19.8166667,11.1166667 C19.6627126,11.053864 19.521511,10.963495 19.4,10.85 C19.2870164,10.7344047 19.1965815,10.5987523 19.1333333,10.45 C18.9998342,10.1416052 18.9998342,9.79172812 19.1333333,9.48333333 C19.1965815,9.33458102 19.2870164,9.19892867 19.4,9.08333333 C19.5172052,8.96441089 19.6595876,8.87328617 19.8166667,8.81666667 C20.1194328,8.68397422 20.4639005,8.68397422 20.7666667,8.81666667 C20.9188284,8.8734255 21.0557501,8.96470666 21.1666667,9.08333333 C21.2847291,9.19825959 21.3807562,9.33382723 21.45,9.48333333 C21.5032534,9.6390007 21.5313832,9.8021539 21.5333333,9.96666667 C21.5330416,10.2980756 21.4011541,10.6158044 21.1666667,10.85 C21.0510713,10.9629836 20.915419,11.0534185 20.7666667,11.1166667 C20.6142252,11.183131 20.4496331,11.2171845 20.2833333,11.2166768 L20.2833333,11.2166768 Z" id="Path"></path>
                    <path d="M9.65,21.2166667 C9.48370019,21.2171845 9.31910809,21.183131 9.16666667,21.1166667 C9.01791435,21.0534185 8.882262,20.9629836 8.76666667,20.85 C8.64803999,20.7390835 8.55675883,20.6021617 8.5,20.45 C8.41590325,20.3121716 8.35930494,20.1593562 8.33332751,20 C8.33281547,19.8337002 8.36686901,19.6691081 8.43333333,19.5166667 C8.55849652,19.2149243 8.79825761,18.9751632 9.1,18.85 C9.40276618,18.7173076 9.74723382,18.7173076 10.05,18.85 C10.2090304,18.9025902 10.3523031,18.9942847 10.4666667,19.1166667 C10.5796503,19.232262 10.6700852,19.3679144 10.7333333,19.5166667 C10.7997977,19.6691081 10.8338512,19.8337002 10.8333392,20 C10.8330416,20.3314089 10.7011541,20.6491377 10.4666667,20.8833333 C10.3478061,21.0001963 10.2059023,21.0910147 10.05,21.15 C9.92185297,21.1964489 9.78628467,21.2190436 9.65,21.2166667 L9.65,21.2166667 Z" id="Path"></path>
                    <path d="M20.2833333,21.2166768 C20.1223889,21.2173533 19.963198,21.183241 19.8166667,21.1166667 C19.6627126,21.053864 19.521511,20.963495 19.4,20.85 C19.2870164,20.7344047 19.1965815,20.5987523 19.1333333,20.45 C19.0682073,20.2971365 19.0342114,20.1328228 19.0333275,19.9666667 C19.0328155,19.8003669 19.066869,19.6357748 19.1333333,19.4833333 C19.1965815,19.334581 19.2870164,19.1989287 19.4,19.0833333 C19.5172052,18.9644109 19.6595876,18.8732862 19.8166667,18.8166667 C20.1194328,18.6839742 20.4639005,18.6839742 20.7666667,18.8166667 C20.9188284,18.8734255 21.0557501,18.9647067 21.1666667,19.0833333 C21.4011541,19.3175289 21.5330416,19.6352577 21.5333275,19.9666667 C21.5295431,20.1310058 21.5014613,20.29388 21.45,20.45 C21.3807562,20.5995061 21.2847291,20.7350737 21.1666667,20.85 C21.0510713,20.9629836 20.915419,21.0534185 20.7666667,21.1166667 C20.6142252,21.183131 20.4496331,21.2171845 20.2833333,21.2166768 L20.2833333,21.2166768 Z" id="Path"></path>
                    <path d="M23.3333333,29.6167562 L6.66666667,29.6167562 C4.99750263,29.6255929 3.39412067,28.9664675 2.21382658,27.7861734 C1.0335325,26.6058793 0.374407131,25.0024974 0.383243839,23.3333333 L0.383243839,6.66666667 C0.374407131,4.99750263 1.0335325,3.39412067 2.21382658,2.21382658 C3.39412067,1.0335325 4.99750263,0.374407131 6.66666667,0.383243839 L23.3333333,0.383243839 C25.0024974,0.374407131 26.6058793,1.0335325 27.7861734,2.21382658 C28.9664675,3.39412067 29.6255929,4.99750263 29.6167562,6.66666667 L29.6167562,23.3333333 C29.6255929,25.0024974 28.9664675,26.6058793 27.7861734,27.7861734 C26.6058793,28.9664675 25.0024974,29.6255929 23.3333333,29.6167562 Z M6.66666667,2.88318364 C5.66053708,2.87434949 4.69300284,3.270064 3.98153342,3.98153342 C3.270064,4.69300284 2.87434949,5.66053708 2.88318364,6.66666667 L2.88318364,23.3333333 C2.87434949,24.3394629 3.270064,25.3069972 3.98153342,26.0184666 C4.69300284,26.729936 5.66053708,27.1256505 6.66666667,27.1168164 L23.3333333,27.1168164 C24.3394629,27.1256505 25.3069972,26.729936 26.0184666,26.0184666 C26.729936,25.3069972 27.1256505,24.3394629 27.1168164,23.3333333 L27.1168164,6.66666667 C27.1256505,5.66053708 26.729936,4.69300284 26.0184666,3.98153342 C25.3069972,3.270064 24.3394629,2.87434949 23.3333333,2.88318364 L6.66666667,2.88318364 Z" id="Shape"></path>
                </g>
                <g id="dice-1" filter="url(#filter-4)" fill="#FF9921">
                    <path d="M15,16.2833333 C14.8338439,16.2824553 14.6695301,16.2484593 14.5166667,16.1833333 C14.3645049,16.1265745 14.2275832,16.0352933 14.1166667,15.9166667 C13.6292444,15.4286374 13.6292444,14.6380292 14.1166667,14.15 C14.232262,14.0370164 14.3679144,13.9465815 14.5166667,13.8833333 C14.8250615,13.7498342 15.1749385,13.7498342 15.4833333,13.8833333 C15.6320856,13.9465815 15.767738,14.0370164 15.8833333,14.15 C16.3707556,14.6380292 16.3707556,15.4286374 15.8833333,15.9166667 C15.7724168,16.0352933 15.6354951,16.1265745 15.4833333,16.1833333 C15.3304699,16.2484593 15.1661561,16.2824553 15,16.2833333 Z" id="Path"></path>
                    <path d="M23.3333333,29.6500909 L6.66666667,29.6500909 C4.9916771,29.659029 3.38315952,28.9953441 2.20188334,27.8078012 C1.02060716,26.6202583 0.365442183,25.0082517 0.383333333,23.3333333 L0.383333333,6.66666667 C0.383309676,5.00327204 1.04636367,3.40848758 2.22568531,2.2354223 C3.40500694,1.06235701 5.0032957,0.407795228 6.66666667,0.416577652 L23.3333333,0.416577652 C24.9967043,0.407795228 26.5949931,1.06235701 27.7743147,2.2354223 C28.9536363,3.40848758 29.6166903,5.00327204 29.6166667,6.66666667 L29.6166667,23.3333333 C29.6345578,25.0082517 28.9793928,26.6202583 27.7981167,27.8078012 C26.6168405,28.9953441 25.0083229,29.659029 23.3333333,29.6500909 L23.3333333,29.6500909 Z M6.66666667,2.91651831 C5.66634195,2.90777454 4.70392902,3.29893368 3.99344171,4.00316119 C3.2829544,4.70738871 2.88329381,5.66630243 2.88333333,6.66666667 L2.88333333,23.3333333 C2.86530026,24.3452028 3.25701525,25.3214034 3.9694831,26.0401485 C4.68195095,26.7588936 5.65467797,27.1591565 6.66666667,27.1501537 L23.3333333,27.1501537 C24.345322,27.1591565 25.318049,26.7588936 26.0305169,26.0401485 C26.7429847,25.3214034 27.1346997,24.3452028 27.1166667,23.3333333 L27.1166667,6.66666667 C27.1167062,5.66630243 26.7170456,4.70738871 26.0065583,4.00316119 C25.296071,3.29893368 24.3336581,2.90777454 23.3333333,2.91651831 L6.66666667,2.91651831 Z" id="Shape"></path>
                </g>
                <g id="dice-3" filter="url(#filter-5)" transform="translate(84.000000, 0.000000)" fill="#3FEBD6">
                    <path d="M9.65,11.25 C9.24926004,11.2408937 8.87719616,11.0401554 8.64954705,10.7102292 C8.42189795,10.380303 8.36628208,9.96121553 8.5,9.58333333 C8.55675883,9.43117159 8.64803999,9.29424985 8.76666667,9.18333333 C9.12064625,8.82833127 9.65429222,8.72291972 10.1166667,8.91666667 C10.272569,8.97565196 10.4144727,9.06647035 10.5333333,9.18333333 C10.646317,9.29892867 10.7367519,9.43458102 10.8,9.58333333 C11.0013668,10.0503 10.8954768,10.5929865 10.5333333,10.95 C10.4144727,11.066863 10.272569,11.1576814 10.1166667,11.2166667 C9.96521001,11.2606057 9.80616416,11.2719661 9.65,11.25 L9.65,11.25 Z" id="Path"></path>
                    <path d="M15,16.2833333 C14.3096441,16.2833333 13.75,15.7236893 13.75,15.0333333 C13.7537903,14.8689942 13.781872,14.70612 13.8333333,14.55 C13.9025772,14.4004939 13.9986042,14.2649263 14.1166667,14.15 C14.232262,14.0370164 14.3679144,13.9465815 14.5166667,13.8833333 C14.8194328,13.7506409 15.1639005,13.7506409 15.4666667,13.8833333 C15.622569,13.9423186 15.7644727,14.033137 15.8833333,14.15 C15.996317,14.2655953 16.0867519,14.4012477 16.15,14.55 C16.3513668,15.0169667 16.2454768,15.5596532 15.8833333,15.9166667 C15.6471324,16.14814 15.3306902,16.2794933 15,16.2833333 Z" id="Path"></path>
                    <path d="M20.2833333,21.25 C20.1226005,21.2487074 19.963816,21.2146822 19.8166667,21.15 C19.6607643,21.0910147 19.5188606,21.0001963 19.4,20.8833333 C18.9125777,20.3953041 18.9125777,19.6046959 19.4,19.1166667 C19.5188606,18.9998037 19.6607643,18.9089853 19.8166667,18.85 C20.2790411,18.6562531 20.8126871,18.7616646 21.1666667,19.1166667 C21.5237005,19.4741447 21.6304303,20.0114035 21.437145,20.4782059 C21.2438596,20.9450082 20.7885694,21.2495556 20.2833333,21.25 L20.2833333,21.25 Z" id="Path"></path>
                    <path d="M23.3333333,29.6500909 L6.66666667,29.6500909 C4.9916771,29.659029 3.38315952,28.9953441 2.20188334,27.8078012 C1.02060716,26.6202583 0.365442183,25.0082517 0.383333333,23.3333333 L0.383333333,6.66666667 C0.383309676,5.00327204 1.04636367,3.40848758 2.22568531,2.2354223 C3.40500694,1.06235701 5.0032957,0.407795228 6.66666667,0.416577652 L23.3333333,0.416577652 C24.9967043,0.407795228 26.5949931,1.06235701 27.7743147,2.2354223 C28.9536363,3.40848758 29.6166903,5.00327204 29.6166667,6.66666667 L29.6166667,23.3333333 C29.6345578,25.0082517 28.9793928,26.6202583 27.7981167,27.8078012 C26.6168405,28.9953441 25.0083229,29.659029 23.3333333,29.6500909 L23.3333333,29.6500909 Z M6.66666667,2.91651831 C5.66634195,2.90777454 4.70392902,3.29893368 3.99344171,4.00316119 C3.2829544,4.70738871 2.88329381,5.66630243 2.88333333,6.66666667 L2.88333333,23.3333333 C2.86530026,24.3452028 3.25701525,25.3214034 3.9694831,26.0401485 C4.68195095,26.7588936 5.65467797,27.1591565 6.66666667,27.1501537 L23.3333333,27.1501537 C24.345322,27.1591565 25.318049,26.7588936 26.0305169,26.0401485 C26.7429847,25.3214034 27.1346997,24.3452028 27.1166667,23.3333333 L27.1166667,6.66666667 C27.1167062,5.66630243 26.7170456,4.70738871 26.0065583,4.00316119 C25.296071,3.29893368 24.3336581,2.90777454 23.3333333,2.91651831 L6.66666667,2.91651831 Z" id="Shape"></path>
                </g>
            </g>
        </g>
    </g>
</svg>