<?xml version="1.0" encoding="UTF-8"?>
<svg width="203px" height="20px" viewBox="0 0 203 20" version="1.1" xmlns="http://www.w3.org/2000/svg" xmlns:xlink="http://www.w3.org/1999/xlink">
    <title>4394067D-5737-4B5A-99A1-B48EFC39A657</title>
    <g id="2k" stroke="none" stroke-width="1" fill="none" fill-rule="evenodd">
        <g id="Components" transform="translate(-457.000000, -7017.000000)" fill-rule="nonzero">
            <g id="Group-14" transform="translate(457.000000, 7017.000000)">
                <g id="banner01" transform="translate(125.000000, 0.000000)" fill="#45FBE0">
                    <path d="M7.77272727,18.5681818 C0.259090909,18.5681818 0.172727273,11.0804545 0.172727273,11.0027273 L0.172727273,4.01590909 C0.181942627,3.77411133 0.325165356,3.55761185 0.544090909,3.45454545 L7.49636364,0.19 C7.67235669,0.112028642 7.87309785,0.112028642 8.04909091,0.19 L15.0013636,3.45454545 C15.2285595,3.56172728 15.3732941,3.79060992 15.3727289,4.04181818 L15.3727289,11.0286364 C15.3727289,11.0804545 15.2863636,18.5681818 7.77272727,18.5681818 Z M1.46818182,4.43045455 L1.46818182,11.0027273 C1.46818182,11.2272727 1.56318182,17.2727273 7.77272727,17.2727273 C13.9822727,17.2727273 14.0772727,11.2272727 14.0772727,11.0027273 L14.0772727,4.43045455 L7.77272727,1.46818182 L1.46818182,4.43045455 Z" id="Shape"></path>
                    <path d="M0.863636364,10.1477273 C0.563051999,10.1489159 0.301145967,9.94315555 0.231152888,9.65083151 C0.161159809,9.35850748 0.301473519,9.05644103 0.57,8.92136364 L7.52227273,5.415 C7.70946257,5.31963343 7.93099198,5.31963343 8.11818182,5.415 L14.8113636,8.93 C15.0372336,9.02523976 15.1899891,9.23982606 15.2060393,9.4844283 C15.2220894,9.72903053 15.098684,9.96173775 14.8871959,10.0856758 C14.6757078,10.2096138 14.4123739,10.2035466 14.2068182,10.07 L7.77272727,6.71909091 L1.12272727,10.0786364 C1.04162683,10.1181582 0.953647211,10.1416194 0.863636364,10.1477273 Z" id="Path"></path>
                </g>
                <g id="sword-alt" transform="translate(61.000000, 0.000000)" fill="#45FBE0">
                    <path d="M8,13.168 C7.84160222,13.1645532 7.69027656,13.1017388 7.576,12.992 L3.016,8.424 C2.80856242,8.19767429 2.80856242,7.85032571 3.016,7.624 L9.728,0.8 C9.84041389,0.68744601 9.99292372,0.624140042 10.152,0.624 L10.152,0.624 L14.752,0.624 C15.0802716,0.624 15.347623,0.887757549 15.352,1.216 L15.4000006,5.76 C15.4002331,5.92150414 15.3370296,6.07663995 15.224,6.192 L8.416,13 C8.30427479,13.1076867 8.15517391,13.168 8,13.168 Z M4.28,8 L8,11.712 L14.208,5.512 L14.16,1.816 L10.4,1.8 L4.28,8 Z" id="Shape"></path>
                    <path d="M10.232,15.4 C10.0727468,15.4007804 9.9199071,15.337309 9.808,15.224 L0.8,6.192 C0.649528279,5.95991894 0.67720391,5.65504747 0.867007268,5.45385591 C1.05681062,5.25266435 1.35955446,5.20729119 1.6,5.344 L10.656,14.4 C10.8899627,14.634254 10.8899627,15.013746 10.656,15.248 C10.5406774,15.3533241 10.3879724,15.4080675 10.232,15.4 L10.232,15.4 Z" id="Path"></path>
                    <path d="M4,15.352 C3.83077913,15.3694014 3.66212552,15.3141528 3.536,15.2 L0.8,12.44 C0.685007367,12.3226706 0.621646329,12.164268 0.623936694,12 C0.623936694,11.672 0.623936694,11.664 3.912,8.464 C4.15058701,8.23204041 4.53204041,8.23741299 4.764,8.476 C4.99595959,8.71458701 4.99058701,9.09604041 4.752,9.328 C3.728,10.328 2.608,11.432 2.056,12 L4,13.904 L6.648,11.2 C6.75943024,11.0856418 6.91233002,11.021144 7.072,11.021144 C7.23166998,11.021144 7.38456976,11.0856418 7.496,11.2 C7.7299627,11.434254 7.7299627,11.813746 7.496,12.048 L4.384,15.2 C4.27663313,15.2922388 4.1414099,15.3457646 4,15.352 Z" id="Path"></path>
                    <path d="M8,8.60000661 C7.84074684,8.60075194 7.6879071,8.53730903 7.576,8.424 C7.3420373,8.18974596 7.3420373,7.81025404 7.576,7.576 L10.776,4.376 C10.9255765,4.21547746 11.1508444,4.14940065 11.3634311,4.20369157 C11.5760178,4.25798248 11.7420175,4.42398218 11.7963084,4.63656887 C11.8505993,4.84915557 11.7845225,5.07442354 11.624,5.224 L8.424,8.424 C8.3120929,8.53730903 8.15925316,8.60075194 8,8.60000661 L8,8.60000661 Z" id="Path"></path>
                </g>
                <g id="card-alt" transform="translate(32.000000, 0.000000)" fill="#45FBE0">
                    <path d="M12.7272727,19.7364142 L3.63636364,19.7364142 C1.76060396,19.7464743 0.229072054,18.2393169 0.209090909,16.3636364 L0.209090909,3.63636364 C0.229072054,1.76068313 1.76060396,0.253525743 3.63636364,0.26358579 L12.7272727,0.26358579 C14.6030324,0.253525743 16.1345643,1.76068313 16.1545455,3.63636364 L16.1545455,16.3636364 C16.1345643,18.2393169 14.6030324,19.7464743 12.7272727,19.7364142 Z M3.63636364,1.62718729 C2.51367273,1.61711623 1.5926411,2.51380341 1.57272727,3.63636364 L1.57272727,16.3636364 C1.5926411,17.4861966 2.51367273,18.3828838 3.63636364,18.3728127 L12.7272727,18.3728127 C13.8499636,18.3828838 14.7709953,17.4861966 14.7909091,16.3636364 L14.7909091,3.63636364 C14.7709953,2.51380341 13.8499636,1.61711623 12.7272727,1.62718729 L3.63636364,1.62718729 Z" id="Shape"></path>
                    <path d="M8.18181818,13.9273095 C7.96203034,13.9295674 7.75498226,13.8243462 7.62727273,13.6454545 L5.29090909,10.4 C5.11802592,10.1613539 5.11802592,9.83864611 5.29090909,9.6 L7.62727273,6.36363636 C7.75296852,6.18129886 7.96035408,6.07250644 8.18181818,6.0726905 L8.18181818,6.0726905 C8.40160602,6.07043262 8.6086541,6.17565377 8.73636364,6.35454545 L11.0727273,9.6 C11.2456104,9.83864611 11.2456104,10.1613539 11.0727273,10.4 L8.73636364,13.6363636 C8.61066784,13.8187011 8.40328229,13.9274936 8.18181818,13.9273095 Z M6.68181818,10 L8.18181818,12.0818182 L9.68181818,10 L8.18181818,7.91818182 L6.68181818,10 Z" id="Shape"></path>
                </g>
                <g id="compass" fill="#45FBE0">
                    <path d="M10,19.1636364 C4.93906338,19.1636364 0.836363636,15.0609366 0.836363636,10 C0.836363636,4.93906338 4.93906338,0.836363636 10,0.836363636 C15.0609366,0.836363636 19.1636364,4.93906338 19.1636364,10 C19.1586251,15.0588594 15.0588594,19.1586251 10,19.1636364 Z M10,2.2 C5.69217895,2.2 2.2,5.69217895 2.2,10 C2.2,14.307821 5.69217895,17.8 10,17.8 C14.307821,17.8 17.8,14.307821 17.8,10 C17.7949904,5.6942557 14.3057443,2.2050096 10,2.2 Z" id="Shape"></path>
                    <path d="M5.8,14.8818182 C5.62000253,14.8779014 5.44804155,14.8065214 5.31818182,14.6818182 C5.13506878,14.4985272 5.07166269,14.22729 5.15454545,13.9818182 L6.97272727,8.58181818 C7.03364651,8.40407589 7.16521432,8.2593513 7.33636364,8.18181818 L13.9363636,5.18181818 C14.1970968,5.05729405 14.5080077,5.11063794 14.7123213,5.31495146 C14.9166348,5.51926498 14.9699787,5.83017595 14.8454545,6.09090909 L11.8181818,12.7272727 C11.7406487,12.898422 11.5959241,13.0299899 11.4181818,13.0909091 L6.01818182,14.9090909 C5.94461897,14.9088611 5.87135595,14.8997032 5.8,14.8818182 Z M8.18181818,9.3 L6.90909091,13.1181818 L10.7272727,11.8454545 L12.8545455,7.17272727 L8.18181818,9.3 Z" id="Shape"></path>
                    <path d="M9.57272727,11.1090941 C9.39195877,11.1089318 9.21865214,11.0369932 9.09090909,10.9090909 C9.02900273,10.8428122 8.97971053,10.7657931 8.94545455,10.6818182 C8.91017335,10.6015549 8.89161412,10.5149452 8.89090909,10.4272727 C8.89106823,10.2465042 8.96300683,10.0731976 9.09090909,9.94545455 C9.28832957,9.75360702 9.57894574,9.69335732 9.83636364,9.79090909 C9.91791242,9.82867845 9.99185841,9.88105685 10.0545455,9.94545455 C10.1824477,10.0731976 10.2543863,10.2465042 10.2545455,10.4272727 C10.2538404,10.5149452 10.2352812,10.6015549 10.2,10.6818182 C10.165744,10.7657931 10.1164518,10.8428122 10.0545455,10.9090909 C9.99149345,10.9707183 9.91750126,11.0200465 9.83636364,11.0545455 C9.75321377,11.0907987 9.66343626,11.1093734 9.57272727,11.1090941 L9.57272727,11.1090941 Z" id="Path"></path>
                </g>
                <g id="skull" transform="translate(91.000000, 0.000000)" fill="#45FBE0">
                    <path d="M10.9718182,14.0236364 C10.7606415,14.0207071 10.5645906,13.9134918 10.4481818,13.7372727 C10.2895478,13.4569675 10.3712077,13.1019245 10.6363636,12.9190909 C12.8918454,11.4671879 13.9211227,8.70283782 13.1644402,6.12938651 C12.4077577,3.55593521 10.0460271,1.78865711 7.36363636,1.78865711 C4.68124564,1.78865711 2.31951501,3.55593521 1.56283253,6.12938651 C0.80615005,8.70283782 1.83542737,11.4671879 4.09090909,12.9190909 C4.28079966,13.1277535 4.3039412,13.4390088 4.14699561,13.6734584 C3.99005003,13.9079079 3.69346437,14.0051309 3.42818182,13.9090909 C0.714154499,12.1629917 -0.524832437,8.83736718 0.385141015,5.74111861 C1.29511447,2.64487005 4.13643837,0.518430476 7.36363636,0.518430476 C10.5908344,0.518430476 13.4321583,2.64487005 14.3421317,5.74111861 C15.2521052,8.83736718 14.0131182,12.1629917 11.2990909,13.9090909 C11.2032802,13.9779409 11.0896524,14.0177107 10.9718182,14.0236364 Z" id="Path"></path>
                    <path d="M10.9718182,17.4845455 L3.75545455,17.4845455 C3.41655254,17.4845455 3.14181818,17.2098111 3.14181818,16.8709091 L3.14181818,13.41 C3.14181818,13.071098 3.41655254,12.7963636 3.75545455,12.7963636 C4.09435655,12.7963636 4.36909091,13.071098 4.36909091,13.41 L4.36909091,16.2572727 L10.3581818,16.2572727 L10.3581818,13.41 C10.3581818,13.071098 10.6329162,12.7963636 10.9718182,12.7963636 C11.3107202,12.7963636 11.5854545,13.071098 11.5854545,13.41 L11.5854545,16.8709091 C11.5854545,17.2098111 11.3107202,17.4845455 10.9718182,17.4845455 Z" id="Path"></path>
                    <path d="M5.04,11.0863636 C4.70109799,11.0863636 4.42636364,10.8116293 4.42636364,10.4727273 L4.42636364,7.52727273 C4.42636364,7.18837072 4.70109799,6.91363636 5.04,6.91363636 C5.37890201,6.91363636 5.65363636,7.18837072 5.65363636,7.52727273 L5.65363636,10.4727273 C5.64922979,10.8097871 5.37705987,11.0819571 5.04,11.0863636 L5.04,11.0863636 Z" id="Path"></path>
                    <path d="M9.45818182,11.0863636 C9.12112195,11.0819571 8.84895203,10.8097871 8.84454545,10.4727273 L8.84454545,7.52727273 C8.84454545,7.18837072 9.11927981,6.91363636 9.45818182,6.91363636 C9.79708382,6.91363636 10.0718182,7.18837072 10.0718182,7.52727273 L10.0718182,10.4727273 C10.0718182,10.8116293 9.79708382,11.0863636 9.45818182,11.0863636 L9.45818182,11.0863636 Z" id="Path"></path>
                    <path d="M6.20181818,17.5009091 C5.86475831,17.4965025 5.59258839,17.2243326 5.58818182,16.8872727 L5.58818182,15.1445455 C5.58818182,14.8056434 5.86291618,14.5309091 6.20181818,14.5309091 C6.54072019,14.5309091 6.81545455,14.8056434 6.81545455,15.1445455 L6.81545455,16.8872727 C6.81545455,17.0500192 6.75080376,17.2061 6.63572462,17.3211792 C6.52064547,17.4362583 6.36456466,17.5009091 6.20181818,17.5009091 L6.20181818,17.5009091 Z" id="Path"></path>
                    <path d="M8.52545455,17.5009091 C8.18655254,17.5009091 7.91181818,17.2261747 7.91181818,16.8872727 L7.91181818,15.1445455 C7.91181818,14.8056434 8.18655254,14.5309091 8.52545455,14.5309091 C8.86435655,14.5309091 9.13909091,14.8056434 9.13909091,15.1445455 L9.13909091,16.8872727 C9.13468434,17.2243326 8.86251442,17.4965025 8.52545455,17.5009091 L8.52545455,17.5009091 Z" id="Path"></path>
                </g>
                <path d="M158.9739,16.9610145 C158.716599,16.9554156 158.470787,16.8533802 158.285156,16.6751211 C158.023402,16.4131126 157.932765,16.025388 158.051244,15.674494 L160.650275,7.95537101 C160.737357,7.70129423 160.925429,7.49441518 161.170081,7.38358412 L170.604565,3.09518244 C170.977274,2.91717928 171.421711,2.99343263 171.713771,3.28549211 C172.00583,3.57755159 172.082084,4.02198862 171.904081,4.3946981 L167.576693,13.8811624 C167.465862,14.1258148 167.258983,14.3138866 167.004906,14.4009687 L159.285783,17 C159.180628,16.9996715 159.075901,16.9865806 158.9739,16.9610145 Z M162.378631,8.98198838 L160.559309,14.4399542 L166.017275,12.6206322 L169.058141,5.94112174 L162.378631,8.98198838 Z" id="Shape" fill="#BB78F2" transform="translate(164.999631, 10.000000) rotate(-45.000000) translate(-164.999631, -10.000000) "></path>
                <g id="bolt" transform="translate(189.000000, 0.000000)" fill="#3FEBD6">
                    <path d="M6.36363636,19.7727347 L6.19090909,19.7727347 C5.89137879,19.6910267 5.68313114,19.419561 5.68181818,19.1090909 L5.68181818,10.6818182 L3.10909091,10.6818182 C1.51750668,10.6818182 0.227272727,9.39158423 0.227272727,7.8 L0.227272727,0.909090909 C0.23216892,0.534579942 0.534579942,0.23216892 0.909090909,0.227272727 L6.36363636,0.227272727 C6.73814733,0.23216892 7.04055835,0.534579942 7.04545455,0.909090909 L7.04545455,5.68181818 L10.7363636,5.68181818 C11.5798958,5.67479911 12.3617079,6.12303805 12.7818182,6.85454545 C13.2040412,7.58585709 13.2040412,8.48687018 12.7818182,9.21818182 L6.95454545,19.4272727 C6.83525607,19.6415126 6.60884517,19.7738759 6.36363636,19.7727347 Z M1.59090909,1.59090909 L1.59090909,7.8 C1.59090909,8.63846867 2.27062224,9.31818182 3.10909091,9.31818182 L6.36363636,9.31818182 C6.73814733,9.32307801 7.04055835,9.62548903 7.04545455,10 L7.04545455,16.5272727 L11.5909091,8.54545455 C11.7676877,8.23555921 11.7676877,7.85534988 11.5909091,7.54545455 C11.4094754,7.2176028 11.0558581,7.02311329 10.6818182,7.04545455 L6.36363636,7.04545455 C5.9891254,7.04055835 5.68671437,6.73814733 5.68181818,6.36363636 L5.68181818,1.59090909 L1.59090909,1.59090909 Z" id="Shape"></path>
                </g>
            </g>
        </g>
    </g>
</svg>