<svg width="68" height="99" xmlns="http://www.w3.org/2000/svg">
    <defs>
        <linearGradient x1="50%" y1="100%" x2="50%" y2="0%" id="a">
            <stop stop-color="#00C6FB" offset="0%"/>
            <stop stop-color="#005BEA" offset="100%"/>
        </linearGradient>
    </defs>
    <g transform="translate(-58 -4076)" fill="#D8D8D8" stroke="url(#a)" stroke-width="1.5" fill-rule="evenodd" fill-opacity=".1">
        <path d="M91.723 4078.484c1.444 0 2.888.43 4.13 1.29l25.724 17.829a7.25 7.25 0 0 1 3.12 5.959v43.865a7.25 7.25 0 0 1-3.134 5.968l-25.868 17.84a7.242 7.242 0 0 1-4.133 1.281 7.242 7.242 0 0 1-4.127-1.3l-25.579-17.817a7.25 7.25 0 0 1-3.106-5.949v-43.888a7.25 7.25 0 0 1 3.12-5.96l25.724-17.827a7.242 7.242 0 0 1 4.13-1.291z"/>
        <path d="M91.723 4078.484c1.444 0 2.888.43 4.13 1.29l25.724 17.829a7.25 7.25 0 0 1 3.12 5.959v43.865a7.25 7.25 0 0 1-3.134 5.968l-25.868 17.84a7.242 7.242 0 0 1-4.133 1.281 7.242 7.242 0 0 1-4.127-1.3l-25.579-17.817a7.25 7.25 0 0 1-3.106-5.949v-43.888a7.25 7.25 0 0 1 3.12-5.96l25.724-17.827a7.242 7.242 0 0 1 4.13-1.291z"/>
    </g>
</svg>
