<svg width="346" height="346" xmlns="http://www.w3.org/2000/svg">
    <defs>
        <linearGradient x1="50%" y1="15.352%" x2="50%" y2="100%" id="b">
            <stop stop-color="#FFEA7D" offset="0%"/>
            <stop stop-color="#D67928" offset="54.647%"/>
            <stop stop-color="#B94B04" offset="100%"/>
        </linearGradient>
        <filter x="-72%" y="-72%" width="244%" height="244%" filterUnits="objectBoundingBox" id="a">
            <feGaussianBlur stdDeviation="24" in="SourceGraphic"/>
        </filter>
    </defs>
    <g fill="none" fill-rule="evenodd">
        <path d="M35.71 20.71h70c8.285 0 15 6.716 15 15v70c0 8.285-6.715 15-15 15h-70c-8.284 0-15-6.715-15-15v-70c0-8.284 6.716-15 15-15z" fill="#8431C9" filter="url(#a)" transform="rotate(45 -1.414 244.836)"/>
        <path d="M70.966 7.917a9.24 9.24 0 0 1 5.27 1.647l32.58 22.58a9.25 9.25 0 0 1 3.98 7.603v55.491a9.25 9.25 0 0 1-3.998 7.615l-32.763 22.595a9.24 9.24 0 0 1-5.273 1.635 9.24 9.24 0 0 1-5.265-1.66l-32.398-22.565a9.25 9.25 0 0 1-3.963-7.59v-55.52a9.25 9.25 0 0 1 3.981-7.603l32.58-22.58a9.24 9.24 0 0 1 5.27-1.648z" stroke="url(#b)" stroke-width="1.5" fill-opacity=".1" fill="#D8D8D8" transform="translate(102 102)"/>
    </g>
</svg>
