<svg width="1453" height="346" xmlns="http://www.w3.org/2000/svg" xmlns:xlink="http://www.w3.org/1999/xlink">
    <defs>
        <path d="M18 0h1417c9.941 0 18 8.059 18 18v328H0V18C0 8.059 8.059 0 18 0z" id="a"/>
        <path id="c" d="M6.69.221.185 7.531 0 14.244l4.305-.011 2.127-1.095 3.264-.108.16-2.573 3.934-4.912 2.655-.146 1.114-1.631L17.179 0z"/>
        <path d="M1.7.007C.679.094-.08.981.007 1.984c.086 1.005.985 1.748 2.007 1.661 1.02-.089 1.779-.974 1.693-1.978C3.626.716 2.817 0 1.865 0c-.055 0-.11.002-.165.007z" id="f"/>
        <path id="h" d="M6.69.221.185 7.531 0 14.244l4.305-.011 2.127-1.095 3.264-.108.16-2.573 3.934-4.912 2.655-.146 1.114-1.631L17.179 0z"/>
        <path d="M1.7.007C.679.094-.08.981.007 1.984c.086 1.005.985 1.748 2.007 1.661 1.02-.089 1.779-.974 1.693-1.978C3.626.716 2.817 0 1.865 0c-.055 0-.11.002-.165.007z" id="j"/>
        <linearGradient x1="0%" y1="100%" x2="99.273%" y2="100%" id="b">
            <stop stop-color="#FFEA7D" stop-opacity="0" offset="0%"/>
            <stop stop-color="#D67928" offset="54.647%"/>
            <stop stop-color="#B94B04" stop-opacity="0" offset="100%"/>
        </linearGradient>
        <linearGradient x1="51.63%" y1="74.09%" x2="46.892%" y2="29.354%" id="d">
            <stop stop-color="#CACACA" offset="0%"/>
            <stop stop-color="#FFF" offset="100%"/>
        </linearGradient>
    </defs>
    <g fill="none" fill-rule="evenodd">
        <path stroke="#000" stroke-width="2" d="M1435 1c4.694 0 8.944 1.903 12.02 4.98A16.947 16.947 0 0 1 1452 18v327H1V18c0-4.694 1.903-8.944 4.98-12.02A16.947 16.947 0 0 1 18 1z"/>
        <path stroke="url(#b)" stroke-linecap="square" d="M19.497.5h1412.801"/>
        <path d="m1430.667 0 13.48.284 7.693 8.646.27 9.789-7.104-.02-2.168-1.115-4.782-.158-.241-3.884-2.877-3.593-2.757-.152L1430 6.604l.667-6.604zm16.795 10.64-5.315-5.974-7.499-.159-.094.933.047.069 2.555.14 4.991 6.231.078 1.262 1.745.057 2.087 1.075 1.506.004-.101-3.638z" fill="#000"/>
        <g transform="matrix(-1 0 0 1 1449.836 2.254)">
            <mask id="e" fill="#fff">
                <use xlink:href="#c"/>
            </mask>
            <path fill="url(#d)" mask="url(#e)" d="M6.69.221.185 7.531 0 14.244l4.305-.011 2.127-1.095 3.264-.108.16-2.573 3.934-4.912 2.655-.146 1.114-1.631L17.179 0z"/>
        </g>
        <path fill="#CBCBCB" d="m1443.147 2.475 6.505 7.31.185 6.713-2.294-.005-3.241-3.014.499-5.611-4.806-5.46z"/>
        <path fill="#B2B2B2" d="m1432.283 5.96 4.018.404 4.373 5.582-.028 1.444 3.656.09 5.534 3.018-4.305-.012-2.127-1.094-3.264-.108-.16-2.573-3.934-4.91-2.655-.149-1.114-1.63z"/>
        <path d="M1443.464 5.609c1.609 1.72 1.173 2.07 4.981 3.827-1.669-.208-2.103-.213-2.866.075-.764.288-1.067 1.605-1.067 1.605.59-7.03-8.505-8.193-10.775-8.84l9.41.199c-1.995.805-.525 2.236.317 3.134M1444.442 11.904s.453.906.912 1.54c.46.634 2.525 1.987 2.525 1.987s-3.047-1.325-3.761-1.595-1.382-.302-2.551-.423c2.074-.187 2.875-1.51 2.875-1.51" fill="#FFF"/>
        <path d="M1441.445 5.026c1.602.138 2.79 1.533 2.654 3.117-.136 1.584-1.546 2.756-3.147 2.618-1.602-.137-2.79-1.533-2.654-3.117.136-1.583 1.545-2.756 3.147-2.618" fill="#000"/>
        <g transform="matrix(-1 0 0 1 1443.086 6.05)">
            <mask id="g" fill="#fff">
                <use xlink:href="#f"/>
            </mask>
            <path fill="#CBCACA" mask="url(#g)" d="M-.08 3.732h3.874V-.081H-.08z"/>
            <path d="M3.57 1.089c.137 1.396-.903 2.642-2.323 2.78-1.42.14-2.682-.88-2.82-2.275C-1.71.197-.67-1.048.75-1.187c1.42-.14 2.682.88 2.819 2.276" fill="#CBCACA" mask="url(#g)"/>
            <path d="M3.522 1.094c.134 1.37-.886 2.592-2.28 2.729-1.393.136-2.631-.864-2.765-2.234C-1.658.219-.638-1.003.756-1.14c1.393-.137 2.63.863 2.766 2.233" fill="#CCCBCB" mask="url(#g)"/>
            <path d="M3.473 1.099c.132 1.344-.87 2.542-2.235 2.676-1.367.135-2.581-.847-2.713-2.191C-1.607.24-.606-.958.76-1.091c1.367-.135 2.58.846 2.713 2.19" fill="#CDCCCC" mask="url(#g)"/>
            <path d="M3.424 1.103c.13 1.318-.852 2.492-2.192 2.623-1.339.132-2.53-.83-2.66-2.147C-1.557.262-.576-.913.764-1.044c1.34-.131 2.531.83 2.66 2.147" fill="#CECDCD" mask="url(#g)"/>
            <path d="M3.376 1.108c.127 1.291-.834 2.442-2.147 2.57-1.313.13-2.48-.813-2.607-2.104C-1.505.284-.543-.869.77-.996c1.313-.13 2.48.812 2.606 2.104" fill="#CFCECE" mask="url(#g)"/>
            <path d="M3.327 1.112c.124 1.266-.818 2.393-2.104 2.52-1.286.126-2.429-.797-2.553-2.063C-1.454.304-.512-.824.774-.95c1.286-.126 2.43.797 2.553 2.062" fill="#D0CFCF" mask="url(#g)"/>
            <path d="M3.279 1.117c.122 1.24-.801 2.343-2.06 2.467-1.26.123-2.38-.78-2.501-2.019s.8-2.343 2.06-2.467c1.26-.124 2.379.781 2.5 2.02" fill="#D1D0D0" mask="url(#g)"/>
            <path d="M3.23 1.122c.12 1.212-.784 2.293-2.017 2.414-1.232.121-2.328-.764-2.446-1.976C-1.353.348-.45-.732.783-.854c1.232-.12 2.328.764 2.447 1.976" fill="#D2D1D1" mask="url(#g)"/>
            <path d="M3.182 1.127c.116 1.186-.767 2.243-1.972 2.361-1.206.118-2.278-.747-2.394-1.932C-1.3.369-.418-.687.788-.806c1.206-.118 2.278.747 2.394 1.933" fill="#D3D2D2" mask="url(#g)"/>
            <path d="M3.133 1.132c.114 1.159-.75 2.193-1.929 2.309-1.179.116-2.227-.731-2.34-1.89C-1.25.39-.387-.642.791-.76c1.18-.115 2.227.732 2.341 1.89" fill="#D4D3D3" mask="url(#g)"/>
            <path d="M3.084 1.137C3.195 2.27 2.352 3.28 1.2 3.393c-1.152.113-2.176-.714-2.287-1.847C-1.198.413-.355-.597.797-.711 1.95-.823 2.973.003 3.084 1.137" fill="#D5D4D4" mask="url(#g)"/>
            <path d="M3.036 1.142c.108 1.106-.716 2.093-1.84 2.203C.07 3.455-.932 2.648-1.04 1.54-1.148.435-.323-.552.802-.663c1.125-.11 2.126.698 2.234 1.805" fill="#D6D5D5" mask="url(#g)"/>
            <path d="M2.988 1.145c.106 1.082-.7 2.044-1.797 2.152-1.1.108-2.075-.68-2.181-1.76C-1.096.456-.292-.507.807-.616c1.098-.108 2.075.68 2.18 1.76" fill="#D7D6D6" mask="url(#g)"/>
            <path d="M2.939 1.15c.104 1.055-.681 1.994-1.753 2.1-1.072.104-2.024-.664-2.128-1.719C-1.045.477-.26-.462.812-.568 1.883-.673 2.836.096 2.939 1.15" fill="#D8D7D7" mask="url(#g)"/>
            <path d="M2.89 1.155c.102 1.028-.664 1.944-1.708 2.047-1.045.102-1.974-.648-2.075-1.675C-.994.5-.23-.417.816-.52 1.86-.622 2.79.128 2.89 1.155" fill="#D9D8D8" mask="url(#g)"/>
            <path d="M2.842 1.16c.098 1.002-.647 1.895-1.666 1.994-1.018.1-1.923-.63-2.02-1.632C-.945.52-.199-.372.82-.472 1.84-.572 2.743.16 2.842 1.16" fill="#DAD9D9" mask="url(#g)"/>
            <path d="M2.793 1.165c.096.975-.63 1.845-1.622 1.941-.99.098-1.872-.614-1.968-1.588C-.893.542-.166-.327.825-.424c.991-.098 1.872.614 1.968 1.589" fill="#DBDADA" mask="url(#g)"/>
            <path d="M2.745 1.17c.093.948-.613 1.794-1.578 1.889-.964.094-1.822-.598-1.915-1.546C-.84.563-.135-.282.83-.377c.964-.094 1.822.599 1.915 1.547" fill="#DCDBDB" mask="url(#g)"/>
            <path d="M2.697 1.175c.09.922-.597 1.744-1.534 1.836C.225 3.104-.61 2.43-.7 1.508-.79.586-.103-.236.835-.33c.938-.092 1.77.58 1.862 1.504" fill="#DDDCDC" mask="url(#g)"/>
            <path d="M2.648 1.18c.088.896-.579 1.694-1.49 1.784C.247 3.053-.563 2.4-.651 1.503-.739.608-.072-.191.839-.281c.912-.09 1.721.565 1.809 1.46" fill="#DEDDDD" mask="url(#g)"/>
            <path d="M2.6 1.185c.085.869-.562 1.645-1.447 1.73-.884.088-1.67-.546-1.755-1.417C-.688.628-.04-.146.845-.233 1.728-.32 2.515.315 2.6 1.185" fill="#DFDEDE" mask="url(#g)"/>
            <path d="M2.551 1.188a1.547 1.547 0 0 1-1.403 1.68A1.548 1.548 0 0 1-.554 1.494C-.637.65-.009-.101.848-.186c.858-.084 1.62.531 1.703 1.374" fill="#E0DFDF" mask="url(#g)"/>
            <path d="M2.502 1.193A1.499 1.499 0 0 1 1.143 2.82c-.83.081-1.569-.515-1.649-1.33A1.5 1.5 0 0 1 .854-.139a1.498 1.498 0 0 1 1.648 1.331" fill="#E1E0E0" mask="url(#g)"/>
            <path d="M2.454 1.198A1.45 1.45 0 0 1 1.14 2.772 1.45 1.45 0 0 1-.457 1.484 1.45 1.45 0 0 1 .858-.09a1.45 1.45 0 0 1 1.596 1.288" fill="#E2E1E1" mask="url(#g)"/>
            <path d="M2.405 1.203a1.4 1.4 0 0 1-1.27 1.521A1.4 1.4 0 0 1-.409 1.48C-.484.715.086.034.863-.043a1.403 1.403 0 0 1 1.542 1.246" fill="#E3E2E2" mask="url(#g)"/>
            <path d="M2.357 1.208a1.354 1.354 0 0 1-1.228 1.469A1.353 1.353 0 0 1-.36 1.475 1.354 1.354 0 0 1 .867.005a1.354 1.354 0 0 1 1.49 1.203" fill="#E4E3E3" mask="url(#g)"/>
            <path d="M2.309 1.213c.07.71-.46 1.346-1.184 1.417A1.306 1.306 0 0 1-.311 1.47 1.305 1.305 0 0 1 .872.053a1.306 1.306 0 0 1 1.437 1.16" fill="#E5E5E5" mask="url(#g)"/>
            <path d="M2.26 1.218a1.257 1.257 0 0 1-1.14 1.364A1.255 1.255 0 0 1-.262 1.465 1.256 1.256 0 0 1 .877.1 1.256 1.256 0 0 1 2.26 1.218" fill="#E6E6E6" mask="url(#g)"/>
            <path d="M2.211 1.223a1.21 1.21 0 0 1-1.096 1.312A1.21 1.21 0 0 1-.215 1.46 1.208 1.208 0 0 1 .881.149a1.208 1.208 0 0 1 1.33 1.074" fill="#E7E7E7" mask="url(#g)"/>
            <path d="M2.163 1.227a1.161 1.161 0 0 1-1.052 1.26A1.161 1.161 0 0 1-.166 1.456 1.16 1.16 0 0 1 .886.196a1.16 1.16 0 0 1 1.277 1.03" fill="#E8E8E8" mask="url(#g)"/>
            <path d="M2.114 1.232a1.112 1.112 0 0 1-1.008 1.206 1.111 1.111 0 0 1-1.223-.987A1.11 1.11 0 0 1 .89.244a1.112 1.112 0 0 1 1.224.988" fill="#E9E9E9" mask="url(#g)"/>
            <path d="M2.066 1.236a1.063 1.063 0 0 1-.964 1.154 1.063 1.063 0 0 1-1.171-.944A1.065 1.065 0 0 1 .896.291a1.064 1.064 0 0 1 1.17.945" fill="#EAEAEA" mask="url(#g)"/>
            <path d="M2.017 1.241a1.014 1.014 0 0 1-.92 1.102A1.017 1.017 0 0 1-.02 1.441 1.015 1.015 0 0 1 .9.34a1.015 1.015 0 0 1 1.117.902" fill="#EBEBEB" mask="url(#g)"/>
            <path d="M1.969 1.246a.968.968 0 0 1-.876 1.05.966.966 0 0 1-1.064-.86A.965.965 0 0 1 .905.387a.967.967 0 0 1 1.064.86" fill="#ECECEC" mask="url(#g)"/>
            <path d="M1.92 1.251a.919.919 0 0 1-.833.997.92.92 0 0 1-1.01-.816.918.918 0 0 1 .832-.997.918.918 0 0 1 1.011.816" fill="#EDEDED" mask="url(#g)"/>
            <path d="M1.872 1.256a.871.871 0 0 1-.789.944.87.87 0 0 1-.958-.773.87.87 0 0 1 .79-.944.87.87 0 0 1 .957.773" fill="#EEE" mask="url(#g)"/>
            <path d="M1.823 1.26a.823.823 0 0 1-.745.893.822.822 0 0 1-.904-.731A.82.82 0 0 1 .92.53a.822.822 0 0 1 .904.73" fill="#EFEFEF" mask="url(#g)"/>
            <path d="M1.775 1.265a.774.774 0 0 1-.702.84.775.775 0 0 1-.851-.688.774.774 0 0 1 .702-.84.774.774 0 0 1 .851.688" fill="#F0F0F0" mask="url(#g)"/>
            <path d="M1.726 1.27a.724.724 0 0 1-.657.787.724.724 0 0 1-.798-.644.725.725 0 0 1 .657-.788.724.724 0 0 1 .798.645" fill="#F1F1F1" mask="url(#g)"/>
            <path d="M1.678 1.274a.676.676 0 0 1-.614.734.676.676 0 0 1-.744-.6.678.678 0 0 1 .613-.736.678.678 0 0 1 .745.602" fill="#F2F2F2" mask="url(#g)"/>
            <path d="M1.63 1.28a.63.63 0 0 1-.57.682.628.628 0 0 1-.692-.559.629.629 0 0 1 .57-.683.63.63 0 0 1 .691.56" fill="#F3F3F3" mask="url(#g)"/>
            <path d="M1.58 1.284a.58.58 0 0 1-.525.63.58.58 0 0 1-.638-.516.58.58 0 0 1 .526-.63.58.58 0 0 1 .638.516" fill="#F4F4F4" mask="url(#g)"/>
            <path d="M1.532 1.29a.532.532 0 0 1-.482.576.532.532 0 0 1-.585-.473.531.531 0 0 1 .482-.577.532.532 0 0 1 .585.473" fill="#F5F5F5" mask="url(#g)"/>
            <path d="M1.484 1.294a.483.483 0 0 1-.438.524.482.482 0 0 1-.532-.429.483.483 0 0 1 .438-.525.484.484 0 0 1 .532.43" fill="#F6F6F6" mask="url(#g)"/>
            <path d="M1.435 1.299a.436.436 0 0 1-.395.472.435.435 0 0 1-.478-.387.435.435 0 0 1 .394-.472.435.435 0 0 1 .48.387" fill="#F7F7F7" mask="url(#g)"/>
            <path d="M1.387 1.303a.386.386 0 0 1-.351.42.387.387 0 0 1-.425-.344.386.386 0 0 1 .35-.42.387.387 0 0 1 .426.344" fill="#F8F8F8" mask="url(#g)"/>
            <path d="M1.338 1.308a.336.336 0 0 1-.307.367.338.338 0 0 1-.372-.3.34.34 0 0 1 .307-.368.34.34 0 0 1 .372.3" fill="#F9F9F9" mask="url(#g)"/>
            <path d="M1.29 1.313a.29.29 0 0 1-.263.315.29.29 0 0 1-.32-.257.29.29 0 0 1 .264-.317.29.29 0 0 1 .319.258" fill="#FAFAFA" mask="url(#g)"/>
            <path d="M1.241 1.317a.242.242 0 0 1-.219.263.243.243 0 0 1-.266-.215.242.242 0 0 1 .22-.263.242.242 0 0 1 .265.215" fill="#FBFBFB" mask="url(#g)"/>
            <path d="M1.193 1.322a.194.194 0 0 1-.176.21.192.192 0 1 1-.037-.382.194.194 0 0 1 .213.172" fill="#FCFCFC" mask="url(#g)"/>
            <path d="M1.144 1.327a.144.144 0 0 1-.13.157.145.145 0 0 1-.16-.129.144.144 0 0 1 .13-.157.145.145 0 0 1 .16.13" fill="#FDFDFD" mask="url(#g)"/>
            <path d="M1.096 1.332a.095.095 0 0 1-.088.104.095.095 0 1 1-.018-.19.096.096 0 0 1 .106.086" fill="#FEFEFE" mask="url(#g)"/>
            <path d="M1.047 1.337a.048.048 0 0 1-.043.052.05.05 0 0 1-.054-.043.047.047 0 0 1 .044-.052.048.048 0 0 1 .053.043" fill="#FFF" mask="url(#g)"/>
        </g>
        <g>
            <path d="M1439.713 6.942c-.045.528 1.078 2.06 1.923 2.132.845.073 1.163-.218 1.424-.888-.158.927-1.017 1.592-1.987 1.509-1.023-.088-1.78-.974-1.694-1.978.03-.342.155-.653.346-.912l-.012.137" fill="#B2B2B2"/>
            <path d="m1439.732 6.791-.007.014c.026-.299 0 .03.007-.014" fill="#B2B2B2"/>
            <path d="M1441.544 6.197c.555.048 1.158.546 1.347 1.11.49 1.47-.686 1.018-1.502.295-.735-.65-1.176-1.52.155-1.405" fill="#FFF"/>
        </g>
        <g>
            <path d="M21.443 0 7.963.284.27 8.93 0 18.719l7.104-.02 2.168-1.115 4.782-.158.241-3.884 2.877-3.593 2.757-.152 2.181-3.193L21.443 0zM4.648 10.64l5.315-5.974 7.499-.159.094.933-.047.069-2.555.14-4.991 6.231-.078 1.262-1.745.057-2.087 1.075-1.506.004.101-3.638z" fill="#000"/>
            <g transform="translate(2.274 2.254)">
                <mask id="i" fill="#fff">
                    <use xlink:href="#h"/>
                </mask>
                <path fill="url(#d)" mask="url(#i)" d="M6.69.221.185 7.531 0 14.244l4.305-.011 2.127-1.095 3.264-.108.16-2.573 3.934-4.912 2.655-.146 1.114-1.631L17.179 0z"/>
            </g>
            <path fill="#CBCBCB" d="m8.963 2.475-6.505 7.31-.185 6.713 2.294-.005 3.241-3.014-.499-5.611 4.806-5.46z"/>
            <path fill="#B2B2B2" d="m19.827 5.96-4.018.404-4.373 5.582.028 1.444-3.656.09-5.534 3.018 4.305-.012 2.127-1.094 3.264-.108.16-2.573 3.934-4.91 2.655-.149 1.114-1.63z"/>
            <path d="M8.646 5.609c-1.609 1.72-1.173 2.07-4.981 3.827 1.669-.208 2.103-.213 2.866.075.764.288 1.067 1.605 1.067 1.605-.59-7.03 8.505-8.193 10.775-8.84l-9.41.199c1.995.805.525 2.236-.317 3.134M7.668 11.904s-.453.906-.912 1.54c-.46.634-2.525 1.987-2.525 1.987s3.047-1.325 3.761-1.595 1.382-.302 2.551-.423c-2.074-.187-2.875-1.51-2.875-1.51" fill="#FFF"/>
            <path d="M10.665 5.026c-1.602.138-2.79 1.533-2.654 3.117.136 1.584 1.546 2.756 3.147 2.618 1.602-.137 2.79-1.533 2.654-3.117-.136-1.583-1.545-2.756-3.147-2.618" fill="#000"/>
            <g transform="translate(9.024 6.05)">
                <mask id="k" fill="#fff">
                    <use xlink:href="#j"/>
                </mask>
                <path fill="#CBCACA" mask="url(#k)" d="M-.08 3.732h3.874V-.081H-.08z"/>
                <path d="M3.57 1.089c.137 1.396-.903 2.642-2.323 2.78-1.42.14-2.682-.88-2.82-2.275C-1.71.197-.67-1.048.75-1.187c1.42-.14 2.682.88 2.819 2.276" fill="#CBCACA" mask="url(#k)"/>
                <path d="M3.522 1.094c.134 1.37-.886 2.592-2.28 2.729-1.393.136-2.631-.864-2.765-2.234C-1.658.219-.638-1.003.756-1.14c1.393-.137 2.63.863 2.766 2.233" fill="#CCCBCB" mask="url(#k)"/>
                <path d="M3.473 1.099c.132 1.344-.87 2.542-2.235 2.676-1.367.135-2.581-.847-2.713-2.191C-1.607.24-.606-.958.76-1.091c1.367-.135 2.58.846 2.713 2.19" fill="#CDCCCC" mask="url(#k)"/>
                <path d="M3.424 1.103c.13 1.318-.852 2.492-2.192 2.623-1.339.132-2.53-.83-2.66-2.147C-1.557.262-.576-.913.764-1.044c1.34-.131 2.531.83 2.66 2.147" fill="#CECDCD" mask="url(#k)"/>
                <path d="M3.376 1.108c.127 1.291-.834 2.442-2.147 2.57-1.313.13-2.48-.813-2.607-2.104C-1.505.284-.543-.869.77-.996c1.313-.13 2.48.812 2.606 2.104" fill="#CFCECE" mask="url(#k)"/>
                <path d="M3.327 1.112c.124 1.266-.818 2.393-2.104 2.52-1.286.126-2.429-.797-2.553-2.063C-1.454.304-.512-.824.774-.95c1.286-.126 2.43.797 2.553 2.062" fill="#D0CFCF" mask="url(#k)"/>
                <path d="M3.279 1.117c.122 1.24-.801 2.343-2.06 2.467-1.26.123-2.38-.78-2.501-2.019s.8-2.343 2.06-2.467c1.26-.124 2.379.781 2.5 2.02" fill="#D1D0D0" mask="url(#k)"/>
                <path d="M3.23 1.122c.12 1.212-.784 2.293-2.017 2.414-1.232.121-2.328-.764-2.446-1.976C-1.353.348-.45-.732.783-.854c1.232-.12 2.328.764 2.447 1.976" fill="#D2D1D1" mask="url(#k)"/>
                <path d="M3.182 1.127c.116 1.186-.767 2.243-1.972 2.361-1.206.118-2.278-.747-2.394-1.932C-1.3.369-.418-.687.788-.806c1.206-.118 2.278.747 2.394 1.933" fill="#D3D2D2" mask="url(#k)"/>
                <path d="M3.133 1.132c.114 1.159-.75 2.193-1.929 2.309-1.179.116-2.227-.731-2.34-1.89C-1.25.39-.387-.642.791-.76c1.18-.115 2.227.732 2.341 1.89" fill="#D4D3D3" mask="url(#k)"/>
                <path d="M3.084 1.137C3.195 2.27 2.352 3.28 1.2 3.393c-1.152.113-2.176-.714-2.287-1.847C-1.198.413-.355-.597.797-.711 1.95-.823 2.973.003 3.084 1.137" fill="#D5D4D4" mask="url(#k)"/>
                <path d="M3.036 1.142c.108 1.106-.716 2.093-1.84 2.203C.07 3.455-.932 2.648-1.04 1.54-1.148.435-.323-.552.802-.663c1.125-.11 2.126.698 2.234 1.805" fill="#D6D5D5" mask="url(#k)"/>
                <path d="M2.988 1.145c.106 1.082-.7 2.044-1.797 2.152-1.1.108-2.075-.68-2.181-1.76C-1.096.456-.292-.507.807-.616c1.098-.108 2.075.68 2.18 1.76" fill="#D7D6D6" mask="url(#k)"/>
                <path d="M2.939 1.15c.104 1.055-.681 1.994-1.753 2.1-1.072.104-2.024-.664-2.128-1.719C-1.045.477-.26-.462.812-.568 1.883-.673 2.836.096 2.939 1.15" fill="#D8D7D7" mask="url(#k)"/>
                <path d="M2.89 1.155c.102 1.028-.664 1.944-1.708 2.047-1.045.102-1.974-.648-2.075-1.675C-.994.5-.23-.417.816-.52 1.86-.622 2.79.128 2.89 1.155" fill="#D9D8D8" mask="url(#k)"/>
                <path d="M2.842 1.16c.098 1.002-.647 1.895-1.666 1.994-1.018.1-1.923-.63-2.02-1.632C-.945.52-.199-.372.82-.472 1.84-.572 2.743.16 2.842 1.16" fill="#DAD9D9" mask="url(#k)"/>
                <path d="M2.793 1.165c.096.975-.63 1.845-1.622 1.941-.99.098-1.872-.614-1.968-1.588C-.893.542-.166-.327.825-.424c.991-.098 1.872.614 1.968 1.589" fill="#DBDADA" mask="url(#k)"/>
                <path d="M2.745 1.17c.093.948-.613 1.794-1.578 1.889-.964.094-1.822-.598-1.915-1.546C-.84.563-.135-.282.83-.377c.964-.094 1.822.599 1.915 1.547" fill="#DCDBDB" mask="url(#k)"/>
                <path d="M2.697 1.175c.09.922-.597 1.744-1.534 1.836C.225 3.104-.61 2.43-.7 1.508-.79.586-.103-.236.835-.33c.938-.092 1.77.58 1.862 1.504" fill="#DDDCDC" mask="url(#k)"/>
                <path d="M2.648 1.18c.088.896-.579 1.694-1.49 1.784C.247 3.053-.563 2.4-.651 1.503-.739.608-.072-.191.839-.281c.912-.09 1.721.565 1.809 1.46" fill="#DEDDDD" mask="url(#k)"/>
                <path d="M2.6 1.185c.085.869-.562 1.645-1.447 1.73-.884.088-1.67-.546-1.755-1.417C-.688.628-.04-.146.845-.233 1.728-.32 2.515.315 2.6 1.185" fill="#DFDEDE" mask="url(#k)"/>
                <path d="M2.551 1.188a1.547 1.547 0 0 1-1.403 1.68A1.548 1.548 0 0 1-.554 1.494C-.637.65-.009-.101.848-.186c.858-.084 1.62.531 1.703 1.374" fill="#E0DFDF" mask="url(#k)"/>
                <path d="M2.502 1.193A1.499 1.499 0 0 1 1.143 2.82c-.83.081-1.569-.515-1.649-1.33A1.5 1.5 0 0 1 .854-.139a1.498 1.498 0 0 1 1.648 1.331" fill="#E1E0E0" mask="url(#k)"/>
                <path d="M2.454 1.198A1.45 1.45 0 0 1 1.14 2.772 1.45 1.45 0 0 1-.457 1.484 1.45 1.45 0 0 1 .858-.09a1.45 1.45 0 0 1 1.596 1.288" fill="#E2E1E1" mask="url(#k)"/>
                <path d="M2.405 1.203a1.4 1.4 0 0 1-1.27 1.521A1.4 1.4 0 0 1-.409 1.48C-.484.715.086.034.863-.043a1.403 1.403 0 0 1 1.542 1.246" fill="#E3E2E2" mask="url(#k)"/>
                <path d="M2.357 1.208a1.354 1.354 0 0 1-1.228 1.469A1.353 1.353 0 0 1-.36 1.475 1.354 1.354 0 0 1 .867.005a1.354 1.354 0 0 1 1.49 1.203" fill="#E4E3E3" mask="url(#k)"/>
                <path d="M2.309 1.213c.07.71-.46 1.346-1.184 1.417A1.306 1.306 0 0 1-.311 1.47 1.305 1.305 0 0 1 .872.053a1.306 1.306 0 0 1 1.437 1.16" fill="#E5E5E5" mask="url(#k)"/>
                <path d="M2.26 1.218a1.257 1.257 0 0 1-1.14 1.364A1.255 1.255 0 0 1-.262 1.465 1.256 1.256 0 0 1 .877.1 1.256 1.256 0 0 1 2.26 1.218" fill="#E6E6E6" mask="url(#k)"/>
                <path d="M2.211 1.223a1.21 1.21 0 0 1-1.096 1.312A1.21 1.21 0 0 1-.215 1.46 1.208 1.208 0 0 1 .881.149a1.208 1.208 0 0 1 1.33 1.074" fill="#E7E7E7" mask="url(#k)"/>
                <path d="M2.163 1.227a1.161 1.161 0 0 1-1.052 1.26A1.161 1.161 0 0 1-.166 1.456 1.16 1.16 0 0 1 .886.196a1.16 1.16 0 0 1 1.277 1.03" fill="#E8E8E8" mask="url(#k)"/>
                <path d="M2.114 1.232a1.112 1.112 0 0 1-1.008 1.206 1.111 1.111 0 0 1-1.223-.987A1.11 1.11 0 0 1 .89.244a1.112 1.112 0 0 1 1.224.988" fill="#E9E9E9" mask="url(#k)"/>
                <path d="M2.066 1.236a1.063 1.063 0 0 1-.964 1.154 1.063 1.063 0 0 1-1.171-.944A1.065 1.065 0 0 1 .896.291a1.064 1.064 0 0 1 1.17.945" fill="#EAEAEA" mask="url(#k)"/>
                <path d="M2.017 1.241a1.014 1.014 0 0 1-.92 1.102A1.017 1.017 0 0 1-.02 1.441 1.015 1.015 0 0 1 .9.34a1.015 1.015 0 0 1 1.117.902" fill="#EBEBEB" mask="url(#k)"/>
                <path d="M1.969 1.246a.968.968 0 0 1-.876 1.05.966.966 0 0 1-1.064-.86A.965.965 0 0 1 .905.387a.967.967 0 0 1 1.064.86" fill="#ECECEC" mask="url(#k)"/>
                <path d="M1.92 1.251a.919.919 0 0 1-.833.997.92.92 0 0 1-1.01-.816.918.918 0 0 1 .832-.997.918.918 0 0 1 1.011.816" fill="#EDEDED" mask="url(#k)"/>
                <path d="M1.872 1.256a.871.871 0 0 1-.789.944.87.87 0 0 1-.958-.773.87.87 0 0 1 .79-.944.87.87 0 0 1 .957.773" fill="#EEE" mask="url(#k)"/>
                <path d="M1.823 1.26a.823.823 0 0 1-.745.893.822.822 0 0 1-.904-.731A.82.82 0 0 1 .92.53a.822.822 0 0 1 .904.73" fill="#EFEFEF" mask="url(#k)"/>
                <path d="M1.775 1.265a.774.774 0 0 1-.702.84.775.775 0 0 1-.851-.688.774.774 0 0 1 .702-.84.774.774 0 0 1 .851.688" fill="#F0F0F0" mask="url(#k)"/>
                <path d="M1.726 1.27a.724.724 0 0 1-.657.787.724.724 0 0 1-.798-.644.725.725 0 0 1 .657-.788.724.724 0 0 1 .798.645" fill="#F1F1F1" mask="url(#k)"/>
                <path d="M1.678 1.274a.676.676 0 0 1-.614.734.676.676 0 0 1-.744-.6.678.678 0 0 1 .613-.736.678.678 0 0 1 .745.602" fill="#F2F2F2" mask="url(#k)"/>
                <path d="M1.63 1.28a.63.63 0 0 1-.57.682.628.628 0 0 1-.692-.559.629.629 0 0 1 .57-.683.63.63 0 0 1 .691.56" fill="#F3F3F3" mask="url(#k)"/>
                <path d="M1.58 1.284a.58.58 0 0 1-.525.63.58.58 0 0 1-.638-.516.58.58 0 0 1 .526-.63.58.58 0 0 1 .638.516" fill="#F4F4F4" mask="url(#k)"/>
                <path d="M1.532 1.29a.532.532 0 0 1-.482.576.532.532 0 0 1-.585-.473.531.531 0 0 1 .482-.577.532.532 0 0 1 .585.473" fill="#F5F5F5" mask="url(#k)"/>
                <path d="M1.484 1.294a.483.483 0 0 1-.438.524.482.482 0 0 1-.532-.429.483.483 0 0 1 .438-.525.484.484 0 0 1 .532.43" fill="#F6F6F6" mask="url(#k)"/>
                <path d="M1.435 1.299a.436.436 0 0 1-.395.472.435.435 0 0 1-.478-.387.435.435 0 0 1 .394-.472.435.435 0 0 1 .48.387" fill="#F7F7F7" mask="url(#k)"/>
                <path d="M1.387 1.303a.386.386 0 0 1-.351.42.387.387 0 0 1-.425-.344.386.386 0 0 1 .35-.42.387.387 0 0 1 .426.344" fill="#F8F8F8" mask="url(#k)"/>
                <path d="M1.338 1.308a.336.336 0 0 1-.307.367.338.338 0 0 1-.372-.3.34.34 0 0 1 .307-.368.34.34 0 0 1 .372.3" fill="#F9F9F9" mask="url(#k)"/>
                <path d="M1.29 1.313a.29.29 0 0 1-.263.315.29.29 0 0 1-.32-.257.29.29 0 0 1 .264-.317.29.29 0 0 1 .319.258" fill="#FAFAFA" mask="url(#k)"/>
                <path d="M1.241 1.317a.242.242 0 0 1-.219.263.243.243 0 0 1-.266-.215.242.242 0 0 1 .22-.263.242.242 0 0 1 .265.215" fill="#FBFBFB" mask="url(#k)"/>
                <path d="M1.193 1.322a.194.194 0 0 1-.176.21.192.192 0 1 1-.037-.382.194.194 0 0 1 .213.172" fill="#FCFCFC" mask="url(#k)"/>
                <path d="M1.144 1.327a.144.144 0 0 1-.13.157.145.145 0 0 1-.16-.129.144.144 0 0 1 .13-.157.145.145 0 0 1 .16.13" fill="#FDFDFD" mask="url(#k)"/>
                <path d="M1.096 1.332a.095.095 0 0 1-.088.104.095.095 0 1 1-.018-.19.096.096 0 0 1 .106.086" fill="#FEFEFE" mask="url(#k)"/>
                <path d="M1.047 1.337a.048.048 0 0 1-.043.052.05.05 0 0 1-.054-.043.047.047 0 0 1 .044-.052.048.048 0 0 1 .053.043" fill="#FFF" mask="url(#k)"/>
            </g>
            <g>
                <path d="M12.397 6.942c.045.528-1.078 2.06-1.923 2.132-.845.073-1.163-.218-1.424-.888.158.927 1.017 1.592 1.987 1.509 1.022-.088 1.78-.974 1.693-1.978a1.786 1.786 0 0 0-.345-.912c.004.036.008.079.012.137" fill="#B2B2B2"/>
                <path d="m12.378 6.791.007.014c-.026-.299 0 .03-.007-.014" fill="#B2B2B2"/>
                <path d="M10.566 6.197c-.555.048-1.158.546-1.347 1.11-.49 1.47.686 1.018 1.502.295.735-.65 1.176-1.52-.155-1.405" fill="#FFF"/>
            </g>
        </g>
    </g>
</svg>
