<svg width="60" height="60" xmlns="http://www.w3.org/2000/svg" xmlns:xlink="http://www.w3.org/1999/xlink">
    <defs>
        <filter x="-3.3%" y="-3.3%" width="106.7%" height="106.7%" filterUnits="objectBoundingBox" id="b">
            <feGaussianBlur stdDeviation="1.5" in="SourceAlpha" result="shadowBlurInner1"/>
            <feOffset dx="1" dy="1" in="shadowBlurInner1" result="shadowOffsetInner1"/>
            <feComposite in="shadowOffsetInner1" in2="SourceAlpha" operator="arithmetic" k2="-1" k3="1" result="shadowInnerInner1"/>
            <feColorMatrix values="0 0 0 0 0.823529412 0 0 0 0 1 0 0 0 0 0.980392157 0 0 0 0.5 0" in="shadowInnerInner1"/>
        </filter>
        <path d="M781.536 4135.74c3.42 6.115 9.954 10.251 17.458 10.251 7.504 0 14.038-4.136 17.458-10.251h4.436a7.173 7.173 0 0 0 2.43 7.814 29.824 29.824 0 0 1-6.768 6.771 7.17 7.17 0 0 0-8.4-2.218 7.17 7.17 0 0 0-4.37 7.508 29.813 29.813 0 0 1-9.572-.003 7.17 7.17 0 0 0-4.37-7.505 7.17 7.17 0 0 0-8.398 2.216 29.817 29.817 0 0 1-6.771-6.767 7.173 7.173 0 0 0 2.431-7.816zm45.439-6.967a2.012 2.012 0 0 1 2.014 2.013c0 .53-.207 1.01-.54 1.369a2.006 2.006 0 0 1-2.626.281 5.837 5.837 0 0 0-1.844 1.052c-.213.18-.475.292-.751.32l-.14.006h-7.81a18.116 18.116 0 0 1-16.284 10.245 18.116 18.116 0 0 1-16.047-9.772l-.236-.473h-7.812c-.326 0-.641-.115-.89-.326a5.831 5.831 0 0 0-1.844-1.052 2.002 2.002 0 0 1-2.625-.281c-.334-.36-.54-.84-.54-1.369a2.012 2.012 0 0 1 2.013-2.013 2.01 2.01 0 0 1 1.709.951c.83.25 1.625.623 2.35 1.115l.307.218h8.222c.556 0 1.058.334 1.272.847l.012.025.164.375.174.37.215.424.176.325.065.114c.122.213.247.424.378.63l.055.086c.144.224.292.443.447.658l.025.035c.145.2.294.397.448.59.022.028.046.054.069.082.134.165.269.328.409.487l.032.035a15.379 15.379 0 0 0 8.726 4.915l.013.003c.267.047.537.088.809.122l.135.017c.236.028.474.049.713.065l.185.014.43.02.435.006c.3 0 .59-.01.881-.026.056-.003.112-.009.167-.013.247-.016.492-.038.736-.067l.113-.014.387-.054.386-.063.014-.003a15.37 15.37 0 0 0 10.847-7.902l.236-.462.01-.02c.123-.256.24-.514.35-.774l.005-.01a1.379 1.379 0 0 1 1.13-.83l.137-.007h8.222a8.59 8.59 0 0 1 2.657-1.333 2.01 2.01 0 0 1 1.709-.951zm0 1.271a.743.743 0 0 0 0 1.484.743.743 0 0 0 0-1.484zm-55.962 0a.743.743 0 0 0 0 1.484.743.743 0 0 0 0-1.484zm55.962-6.057a2.012 2.012 0 0 1 1.464.634c.301.32.5.736.54 1.199l.009.175v.01a2.004 2.004 0 0 1-.549 1.374 2.01 2.01 0 0 1-2.8.124l-.129-.124h-11.277a14.67 14.67 0 0 0 .035-2.301l-.035-.457h11.277c.367-.39.887-.634 1.465-.634zm-55.962 0c.514 0 .982.193 1.337.51l.128.124h11.28a14.672 14.672 0 0 0-.035 2.301l.035.457h-11.28a2.005 2.005 0 0 1-2.93 0c-.3-.32-.5-.738-.54-1.202L769 4126V4126l.008-.177c.04-.464.24-.881.54-1.202a2.012 2.012 0 0 1 1.465-.634zm55.962 1.271a.743.743 0 0 0 0 1.484.74.74 0 0 0 .63-.355.737.737 0 0 0 .111-.387.737.737 0 0 0-.11-.386.74.74 0 0 0-.631-.356zm-55.962 0a.74.74 0 0 0-.63.355.735.735 0 0 0-.111.387c0 .142.042.273.11.386a.74.74 0 0 0 1.373-.386.743.743 0 0 0-.742-.742zm27.981-17.317a18.117 18.117 0 0 1 16.047 9.772l.237.472h7.811c.326 0 .642.116.89.327.55.465 1.177.819 1.843 1.052a2.004 2.004 0 0 1 2.627.281c.334.36.54.84.54 1.368a2.012 2.012 0 0 1-2.014 2.014 2.01 2.01 0 0 1-1.708-.951 8.626 8.626 0 0 1-2.351-1.115l-.307-.218h-8.222c-.553 0-1.051-.33-1.268-.838 0-.003-.003-.006-.004-.009a14.81 14.81 0 0 0-.35-.772l-.011-.023a15.369 15.369 0 0 0-10.696-8.289l-.386-.074-.014-.002a15.225 15.225 0 0 0-.773-.118l-.113-.014a15.5 15.5 0 0 0-.736-.067c-.055-.004-.11-.01-.167-.013l-.436-.02-.438-.006c-.298 0-.586.01-.872.026-.062.003-.123.01-.184.014-.24.016-.478.038-.714.065l-.135.017-.406.056-.403.066-.014.003a15.378 15.378 0 0 0-8.721 4.91l-.035.04c-.139.156-.273.318-.405.48l-.073.088c-.154.193-.303.389-.448.59-.01.012-.018.025-.027.037-.154.214-.302.433-.444.655l-.057.089c-.13.205-.256.414-.376.626l-.068.118-.174.322-.166.326-.051.1c-.119.245-.231.493-.337.744l-.012.026c-.197.47-.634.79-1.134.84l-.138.007h-8.222a8.59 8.59 0 0 1-2.657 1.333 2.01 2.01 0 0 1-2.202.887 2.012 2.012 0 0 1-1.52-1.95c0-.528.205-1.008.54-1.368a2.005 2.005 0 0 1 2.625-.282 5.829 5.829 0 0 0 1.844-1.051 1.38 1.38 0 0 1 .751-.32l.14-.007h7.81a18.115 18.115 0 0 1 16.283-10.245zm-27.98 12.53a.743.743 0 1 0 .001 1.486.743.743 0 0 0-.002-1.485zm55.96 0a.743.743 0 0 0 0 1.484.743.743 0 0 0 0-1.483zm-23.194-24.083a7.17 7.17 0 0 0 12.768 5.289 29.818 29.818 0 0 1 6.772 6.767 7.174 7.174 0 0 0-2.51 7.553l.078.263h-4.436c-3.42-6.115-9.954-10.251-17.458-10.251-7.37 0-13.805 3.99-17.271 9.926l-.187.325H777.1a7.173 7.173 0 0 0-2.429-7.814 29.811 29.811 0 0 1 6.767-6.771 7.17 7.17 0 0 0 8.4 2.218 7.17 7.17 0 0 0 4.37-7.508 29.822 29.822 0 0 1 9.572.003z" id="a"/>
    </defs>
    <g transform="translate(-769 -4096)" fill="none" fill-rule="evenodd">
        <use fill="#FF9921" xlink:href="#a"/>
        <use fill="#000" filter="url(#b)" xlink:href="#a"/>
    </g>
</svg>
