<svg width="34" height="34" xmlns="http://www.w3.org/2000/svg" xmlns:xlink="http://www.w3.org/1999/xlink">
    <defs>
        <filter x="-5.9%" y="-5.9%" width="111.8%" height="111.8%" filterUnits="objectBoundingBox" id="b">
            <feGaussianBlur stdDeviation="1.5" in="SourceAlpha" result="shadowBlurInner1"/>
            <feOffset dx="1" dy="1" in="shadowBlurInner1" result="shadowOffsetInner1"/>
            <feComposite in="shadowOffsetInner1" in2="SourceAlpha" operator="arithmetic" k2="-1" k3="1" result="shadowInnerInner1"/>
            <feColorMatrix values="0 0 0 0 0.823529412 0 0 0 0 1 0 0 0 0 0.980392157 0 0 0 0.5 0" in="shadowInnerInner1"/>
        </filter>
        <path d="M535.105 4133.524a11.325 11.325 0 0 0 9.895 5.81c4.253 0 7.957-2.345 9.895-5.81h2.514a4.065 4.065 0 0 0 1.377 4.429 16.903 16.903 0 0 1-3.835 3.837 4.064 4.064 0 0 0-7.238 2.998 16.897 16.897 0 0 1-5.426-.001 4.064 4.064 0 0 0-7.236-2.998 16.9 16.9 0 0 1-3.838-3.835 4.066 4.066 0 0 0 1.378-4.43zm25.754-3.95a1.14 1.14 0 1 1-.653 2.076 3.308 3.308 0 0 0-1.045.598.78.78 0 0 1-.395.177l-.11.007h-4.427a10.268 10.268 0 0 1-9.23 5.807 10.268 10.268 0 0 1-9.067-5.486l-.161-.32h-4.427a.781.781 0 0 1-.505-.185 3.305 3.305 0 0 0-1.045-.597 1.135 1.135 0 0 1-1.488-.16 1.14 1.14 0 1 1 1.803-1.378 4.9 4.9 0 0 1 1.274.594l.233.163h4.66c.28 0 .535.15.674.386l.046.093.007.015c.06.143.124.283.192.422.008.018.018.036.027.053.062.126.127.25.194.371l.037.065c.07.121.14.24.215.358l.03.048.125.188.13.185.013.02c.082.114.167.225.254.334l.04.047c.075.093.152.186.231.276l.018.02a8.716 8.716 0 0 0 4.946 2.785l.007.002c.152.027.305.05.459.069l.076.01c.134.015.269.027.405.037l.104.007.244.011.246.004c.17 0 .335-.005.5-.015.032-.001.063-.005.095-.007l.209-.016.208-.022.064-.008c.146-.018.292-.04.438-.066l.008-.002a8.71 8.71 0 0 0 6.281-4.74l.005-.012c.07-.145.137-.29.2-.439l.002-.005a.781.781 0 0 1 .615-.467l.103-.007h4.66c.457-.341.968-.593 1.506-.756.202-.323.56-.54.969-.54zm0 .721a.42.42 0 1 0 0 .842.42.42 0 0 0 0-.842zm-31.718 0a.421.421 0 1 0 .001.842.421.421 0 0 0 0-.842zm31.718-3.433a1.14 1.14 0 0 1 1.133 1.011l.008.128a1.14 1.14 0 0 1-.819 1.097 1.14 1.14 0 0 1-1.058-.224l-.094-.09h-6.392a8.315 8.315 0 0 0 .02-1.304l-.02-.258h6.392c.208-.221.502-.36.83-.36zm-31.718 0c.28 0 .537.102.736.27l.094.09h6.393a8.316 8.316 0 0 0-.02 1.304l.02.259h-6.393a1.136 1.136 0 0 1-1.66 0 1.137 1.137 0 0 1-.304-.653l-.007-.128a1.14 1.14 0 0 1 1.141-1.142zm31.718.72a.42.42 0 0 0 0 .842.42.42 0 0 0 .357-.64.42.42 0 0 0-.357-.201zm-31.718 0a.42.42 0 0 0-.357.202.417.417 0 0 0 0 .438.42.42 0 0 0 .778-.219.42.42 0 0 0-.42-.42zm15.859-9.814a10.268 10.268 0 0 1 9.067 5.485l.162.321h4.427c.185 0 .364.066.505.185.312.264.667.464 1.045.596a1.136 1.136 0 0 1 1.488.16 1.14 1.14 0 1 1-1.804 1.378 4.897 4.897 0 0 1-1.273-.593l-.233-.163h-4.66a.781.781 0 0 1-.718-.475c0-.002-.002-.003-.003-.005a8.39 8.39 0 0 0-.198-.437l-.006-.013a8.71 8.71 0 0 0-6.281-4.74l-.008-.002-.219-.036-.22-.03-.063-.009a8.8 8.8 0 0 0-.417-.038l-.095-.007-.247-.01-.249-.005c-.168 0-.331.006-.494.015l-.104.008c-.136.01-.27.021-.405.037l-.076.01a8.656 8.656 0 0 0-.466.07 8.717 8.717 0 0 0-4.71 2.532l-.234.252-.02.022-.116.135-.113.138-.041.05c-.088.108-.172.22-.254.333l-.016.022-.128.183-.123.188-.033.05a8.71 8.71 0 0 0-.213.355l-.038.067c-.067.12-.131.243-.193.367l-.029.057a8.702 8.702 0 0 0-.19.421l-.007.015a.781.781 0 0 1-.618.473l-.103.007h-4.66c-.457.34-.969.593-1.507.755a1.14 1.14 0 1 1-1.803-1.377 1.137 1.137 0 0 1 1.488-.16 3.304 3.304 0 0 0 1.045-.596.782.782 0 0 1 .395-.177l.11-.008h4.427a10.267 10.267 0 0 1 9.23-5.807zm-15.859 7.102a.42.42 0 1 0 .001.842.42.42 0 0 0 0-.842zm31.718 0a.421.421 0 1 0 0 .842.421.421 0 0 0 0-.842zm-13.146-13.65a4.064 4.064 0 0 0 7.236 2.998 16.9 16.9 0 0 1 3.838 3.835 4.067 4.067 0 0 0-1.437 4.225l.059.205h-2.514a11.325 11.325 0 0 0-9.895-5.81 11.323 11.323 0 0 0-9.738 5.539l-.157.271h-2.514a4.065 4.065 0 0 0-1.377-4.43 16.896 16.896 0 0 1 3.835-3.837 4.064 4.064 0 0 0 7.238-2.998 16.902 16.902 0 0 1 5.426.002z" id="a"/>
    </defs>
    <g transform="translate(-528 -4111)" fill="none" fill-rule="evenodd">
        <use fill="#FF9921" xlink:href="#a"/>
        <use fill="#000" filter="url(#b)" xlink:href="#a"/>
    </g>
</svg>
