<svg width="60" height="60" xmlns="http://www.w3.org/2000/svg" xmlns:xlink="http://www.w3.org/1999/xlink">
    <defs>
        <filter x="-3.3%" y="-3.3%" width="106.7%" height="106.7%" filterUnits="objectBoundingBox" id="b">
            <feGaussianBlur stdDeviation="1.5" in="SourceAlpha" result="shadowBlurInner1"/>
            <feOffset dx="1" dy="1" in="shadowBlurInner1" result="shadowOffsetInner1"/>
            <feComposite in="shadowOffsetInner1" in2="SourceAlpha" operator="arithmetic" k2="-1" k3="1" result="shadowInnerInner1"/>
            <feColorMatrix values="0 0 0 0 0.823529412 0 0 0 0 1 0 0 0 0 0.980392157 0 0 0 0.5 0" in="shadowInnerInner1"/>
        </filter>
        <path d="m1015.71 4126.4.522.361.518.363c1.29.906 2.551 1.794 3.79 2.42 5.696 2.88 10.26 5.86 10.961 10.984.51 3.734-.022 5.513-3.557 6.777-4.91 1.755-7.452.784-11.706 2.166-4.253 1.381-5.785 3.676-10.802 5.146-3.613 1.059-5.027-.088-7.122-3.308-2.874-4.419-1.614-9.689.923-15.242.405-.886.73-1.873 1.041-2.895l.169-.56c1.091-3.658 2.147-7.597 6.048-8.865 3.301-1.072 6.339.677 9.216 2.653zm-22.65 2.81c4.323 3.707 4.238 9.416 2.457 12.189-2.132 3.318-8.472 3.535-12.796-.172-2.65-2.272-6.508-8.994-2.957-12.918 1.906-2.107 8.971-2.806 13.295.901zm28.74-8.59c.815-5.203 5.752-8.69 8.108-8.207 4.387.898 5.48 8.074 4.98 11.262-.816 5.202-5.027 8.635-8.174 7.382-2.63-1.048-5.73-5.235-4.914-10.437zm-46.666 4.38c.583.175 3.413 1.95 3.187 2.708-.164.55-1.596 1.76-2.231 2.013-.787.313-1.363-4.173-.956-4.721zm15.642-20.526.198.008c2.237.147 6.193 1.885 7.94 7.258 1.747 5.372 1.752 11.468-2.741 13.074-2.91 1.04-6.917-2.373-8.664-7.745-1.747-5.373-.863-12.873 3.465-12.587zm28.208 3.67c2.156 5.333.727 10.638-2.83 11.758-5.492 1.727-9.85-3.013-12.006-8.346-2.156-5.332.423-9.303 2.48-10.9 3.977-3.087 10.2 2.156 12.356 7.488zm10.37-2.091c.653.184 2.948 4.338 2.144 4.607-.65.217-2.508.166-2.97-.184-.64-.483.479-3.883.826-4.423zm-39.772-6.316c.492.388 2.517 3.126 2.001 3.74-.373.443-2.228 1.01-2.94.996-.88-.015.332-4.387.94-4.736zm18.646-1.153c-.705.501-3.038 1.275-3.779 1.136-1.023-.191-1.236-4.032-1.06-4.717.898-.108 5.712 2.96 4.839 3.58z" id="a"/>
    </defs>
    <g transform="translate(-975 -4095)" fill="none" fill-rule="evenodd">
        <use fill="#FF9921" xlink:href="#a"/>
        <use fill="#000" filter="url(#b)" xlink:href="#a"/>
    </g>
</svg>
