<svg width="36" height="38" xmlns="http://www.w3.org/2000/svg" xmlns:xlink="http://www.w3.org/1999/xlink">
    <defs>
        <filter x="-5.6%" y="-5.3%" width="111.1%" height="110.5%" filterUnits="objectBoundingBox" id="b">
            <feGaussianBlur stdDeviation="1.5" in="SourceAlpha" result="shadowBlurInner1"/>
            <feOffset dx="1" dy="1" in="shadowBlurInner1" result="shadowOffsetInner1"/>
            <feComposite in="shadowOffsetInner1" in2="SourceAlpha" operator="arithmetic" k2="-1" k3="1" result="shadowInnerInner1"/>
            <feColorMatrix values="0 0 0 0 0.823529412 0 0 0 0 1 0 0 0 0 0.980392157 0 0 0 0.5 0" in="shadowInnerInner1"/>
        </filter>
        <path d="M424.324 4128.878c3.418 1.824 6.156 3.71 6.577 6.956.306 2.365-.013 3.492-2.135 4.293-2.946 1.111-4.47.496-7.023 1.371-2.552.875-3.471 2.329-6.481 3.26-2.168.67-3.017-.057-4.273-2.096-1.725-2.798-.969-6.136.553-9.653.28-.645.496-1.375.708-2.125l.142-.503c.618-2.185 1.312-4.422 3.505-5.174 3.121-1.07 5.85 2.296 8.427 3.671zm-16.488-.211c2.594 2.347 2.543 5.963 1.474 7.719-1.279 2.101-5.083 2.239-7.677-.109-1.59-1.439-3.905-5.696-1.775-8.181 1.144-1.335 5.383-1.777 7.978.57zm17.244-5.441c.49-3.295 3.451-5.503 4.865-5.198 2.632.57 3.288 5.113 2.988 7.133-.49 3.294-3.016 5.469-4.905 4.675-1.577-.663-3.438-3.315-2.948-6.61zm-28 2.774c.35.111 2.048 1.236 1.912 1.715-.098.348-.957 1.115-1.338 1.275-.472.198-.818-2.643-.573-2.99zm9.351-13 .153.005c1.343.094 3.716 1.194 4.765 4.597 1.048 3.402 1.05 7.263-1.645 8.28-1.747.659-4.15-1.503-5.199-4.905-1.048-3.403-.517-8.153 2.08-7.972zm16.96 2.325c1.293 3.377.435 6.737-1.699 7.446-3.295 1.094-5.91-1.908-7.203-5.285-1.294-3.378.253-5.892 1.488-6.903 2.386-1.956 6.12 1.365 7.413 4.742zm6.221-1.325c.392.117 1.77 2.748 1.287 2.918-.39.137-1.505.105-1.783-.117-.383-.306.288-2.459.496-2.801zm-23.863-4c.296.246 1.51 1.98 1.201 2.368-.224.282-1.337.64-1.764.632-.528-.01.199-2.78.563-3zm11.188-.73c-.423.317-1.823.808-2.267.72-.614-.122-.742-2.554-.637-2.988.54-.069 3.428 1.874 2.904 2.268z" id="a"/>
    </defs>
    <g transform="translate(-397 -4107)" fill="none" fill-rule="evenodd">
        <use fill="#FF9921" xlink:href="#a"/>
        <use fill="#000" filter="url(#b)" xlink:href="#a"/>
    </g>
</svg>
