<svg width="15" height="16" viewBox="0 0 15 16" xmlns="http://www.w3.org/2000/svg">
    <path d="M7.715 15.16c.966 0 1.875-.186 2.727-.557a7.225 7.225 0 0 0 2.253-1.535 7.225 7.225 0 0 0 1.528-2.262c.369-.857.553-1.77.553-2.742 0-.97-.184-1.883-.553-2.737a7.277 7.277 0 0 0-1.528-2.263 7.138 7.138 0 0 0-2.256-1.535A6.812 6.812 0 0 0 7.708.976c-.966 0-1.875.184-2.728.553-.852.37-1.601.881-2.249 1.535a7.307 7.307 0 0 0-1.524 2.263 6.829 6.829 0 0 0-.554 2.737c0 .971.185 1.885.554 2.742.37.856.878 1.61 1.528 2.262.65.652 1.4 1.164 2.252 1.535a6.752 6.752 0 0 0 2.728.557zm-.15-5.687c-.456 0-.684-.212-.684-.636v-.068c0-.32.083-.58.25-.78.166-.2.374-.39.625-.567.3-.205.526-.38.677-.523a.727.727 0 0 0 .225-.55.702.702 0 0 0-.266-.564c-.178-.148-.408-.222-.69-.222-.142 0-.273.021-.394.064a1.12 1.12 0 0 0-.335.192c-.102.084-.195.19-.277.318l-.11.136a.785.785 0 0 1-.242.226.645.645 0 0 1-.331.082.565.565 0 0 1-.393-.16A.545.545 0 0 1 5.445 6c0-.068.007-.134.02-.198.015-.064.03-.126.049-.185.114-.337.368-.624.762-.861S7.173 4.4 7.783 4.4c.424 0 .813.074 1.166.223.353.148.637.36.85.639.215.278.322.615.322 1.011 0 .415-.105.743-.314.985-.21.241-.493.476-.848.704a2.681 2.681 0 0 0-.53.424.744.744 0 0 0-.201.478.293.293 0 0 1-.004.031.363.363 0 0 0-.003.051.526.526 0 0 1-.188.373c-.116.102-.273.154-.469.154zm-.014 2.2a.852.852 0 0 1-.592-.225.74.74 0 0 1-.249-.574c0-.228.082-.418.246-.57a.842.842 0 0 1 .595-.23.83.83 0 0 1 .591.23.753.753 0 0 1 .243.57.745.745 0 0 1-.246.574.84.84 0 0 1-.588.226z" fill="#3FEBD6" fill-rule="nonzero"/>
</svg>
