<?xml version="1.0" encoding="UTF-8"?>
<svg width="69px" height="96px" viewBox="0 0 69 96" version="1.1" xmlns="http://www.w3.org/2000/svg" xmlns:xlink="http://www.w3.org/1999/xlink">
    <title>5CCE0A8F-E468-47AF-B777-EF75802CBC46</title>
    <g id="2k" stroke="none" stroke-width="1" fill="none" fill-rule="evenodd" fill-opacity="0.1">
        <g id="Components" transform="translate(-754.000000, -6969.000000)" fill="#FF9920" stroke="#FF9921" stroke-width="1.5">
            <path d="M788.064081,6969.91694 C789.906297,6969.91694 791.748513,6970.46609 793.333187,6971.56438 L793.333187,6971.56438 L817.397268,6988.24245 C819.890628,6989.97052 821.378162,6992.81136 821.378162,6995.84502 L821.378162,6995.84502 L821.378162,7038.14026 C821.378162,7041.18147 819.883256,7044.02838 817.379692,7045.75497 L817.379692,7045.75497 L793.175177,7062.44774 C791.587949,7063.54238 789.744442,7064.08727 787.902208,7064.083 C786.059974,7064.07873 784.219013,7063.5253 782.636876,7062.42332 L782.636876,7062.42332 L758.713229,7045.76008 C756.230132,7044.03056 754.75,7041.19584 754.75,7038.16979 L754.75,7038.16979 L754.75,6995.84502 C754.75,6992.81136 756.237534,6989.97052 758.730894,6988.24245 L758.730894,6988.24245 L782.794975,6971.56438 C784.379649,6970.46609 786.221865,6969.91694 788.064081,6969.91694 Z" id="Rectangle"></path>
        </g>
    </g>
</svg>