<?xml version="1.0" encoding="UTF-8"?>
<svg width="28px" height="41px" viewBox="0 0 28 41" version="1.1" xmlns="http://www.w3.org/2000/svg" xmlns:xlink="http://www.w3.org/1999/xlink">
    <title>334C63F4-CFD0-445E-9115-F5E6CCC1F6E9</title>
    <g id="2k" stroke="none" stroke-width="1" fill="none" fill-rule="evenodd">
        <g id="Components" transform="translate(-378.000000, -7006.000000)" stroke="#BB78F2" stroke-width="1.5">
            <path d="M391.966273,7007.40008 C392.41438,7007.40008 392.862486,7007.53366 393.247948,7007.80081 L393.247948,7007.80081 L404.214221,7015.4012 C404.820714,7015.82154 405.182546,7016.51255 405.182546,7017.25047 L405.182546,7017.25047 L405.182546,7035.74511 C405.182546,7036.48487 404.818921,7037.17736 404.209946,7037.59734 L404.209946,7037.59734 L393.182992,7045.20214 C392.79691,7045.4684 392.348489,7045.60094 391.900378,7045.5999 C391.452267,7045.59886 391.004466,7045.46425 390.619622,7045.19619 L390.619622,7045.19619 L379.714029,7037.60026 C379.110032,7037.17957 378.75,7036.49004 378.75,7035.75397 L378.75,7035.75397 L378.75,7017.25047 C378.75,7016.51255 379.111833,7015.82154 379.718326,7015.4012 L379.718326,7015.4012 L390.684599,7007.80081 C391.07006,7007.53366 391.518167,7007.40008 391.966273,7007.40008 Z" id="Rectangle"></path>
        </g>
    </g>
</svg>