<?xml version="1.0" encoding="UTF-8"?>
<svg width="28px" height="41px" viewBox="0 0 28 41" version="1.1" xmlns="http://www.w3.org/2000/svg" xmlns:xlink="http://www.w3.org/1999/xlink">
    <title>0988C643-BEF2-4E8A-845A-1AB0B552EED0</title>
    <g id="2k" stroke="none" stroke-width="1" fill="none" fill-rule="evenodd">
        <g id="Components" transform="translate(-342.000000, -7006.000000)" stroke="#45FBE0" stroke-width="1.5">
            <path d="M355.966273,7007.40008 C356.41438,7007.40008 356.862486,7007.53366 357.247948,7007.80081 L357.247948,7007.80081 L368.214221,7015.4012 C368.820714,7015.82154 369.182546,7016.51255 369.182546,7017.25047 L369.182546,7017.25047 L369.182546,7035.74511 C369.182546,7036.48487 368.818921,7037.17736 368.209946,7037.59734 L368.209946,7037.59734 L357.182992,7045.20214 C356.79691,7045.4684 356.348489,7045.60094 355.900378,7045.5999 C355.452267,7045.59886 355.004466,7045.46425 354.619622,7045.19619 L354.619622,7045.19619 L343.714029,7037.60026 C343.110032,7037.17957 342.75,7036.49004 342.75,7035.75397 L342.75,7035.75397 L342.75,7017.25047 C342.75,7016.51255 343.111833,7015.82154 343.718326,7015.4012 L343.718326,7015.4012 L354.684599,7007.80081 C355.07006,7007.53366 355.518167,7007.40008 355.966273,7007.40008 Z" id="Rectangle"></path>
        </g>
    </g>
</svg>