<svg width="86" height="122" xmlns="http://www.w3.org/2000/svg">
    <defs>
        <linearGradient x1="50%" y1="15.352%" x2="50%" y2="100%" id="a">
            <stop stop-color="#FFEA7D" offset="0%"/>
            <stop stop-color="#D67928" offset="54.647%"/>
            <stop stop-color="#B94B04" offset="100%"/>
        </linearGradient>
    </defs>
    <path d="M688.87 4072.206a9.24 9.24 0 0 1 5.269 1.648l32.58 22.58a9.25 9.25 0 0 1 3.98 7.603v55.49a9.25 9.25 0 0 1-3.998 7.615l-32.763 22.595a9.24 9.24 0 0 1-5.273 1.635 9.24 9.24 0 0 1-5.265-1.66l-32.397-22.565a9.25 9.25 0 0 1-3.964-7.59v-55.52a9.25 9.25 0 0 1 3.981-7.603l32.58-22.58a9.24 9.24 0 0 1 5.27-1.648z" transform="translate(-646 -4071)" fill="#D8D8D8" stroke="url(#a)" stroke-width="1.5" fill-rule="evenodd" fill-opacity=".1"/>
</svg>
