<?xml version="1.0" encoding="UTF-8"?>
<svg width="69px" height="96px" viewBox="0 0 69 96" version="1.1" xmlns="http://www.w3.org/2000/svg" xmlns:xlink="http://www.w3.org/1999/xlink">
    <title>EB9387D4-8093-4484-94B1-719FCC290916</title>
    <g id="2k" stroke="none" stroke-width="1" fill="none" fill-rule="evenodd" fill-opacity="0.1">
        <g id="Components" transform="translate(-838.000000, -6966.000000)" fill="#3FEBD5" stroke="#3FEBD6" stroke-width="1.5">
            <path d="M872.064081,6966.91694 C873.906297,6966.91694 875.748513,6967.46609 877.333187,6968.56438 L877.333187,6968.56438 L901.397268,6985.24245 C903.890628,6986.97052 905.378162,6989.81136 905.378162,6992.84502 L905.378162,6992.84502 L905.378162,7035.14026 C905.378162,7038.18147 903.883256,7041.02838 901.379692,7042.75497 L901.379692,7042.75497 L877.175177,7059.44774 C875.587949,7060.54238 873.744442,7061.08727 871.902208,7061.083 C870.059974,7061.07873 868.219013,7060.5253 866.636876,7059.42332 L866.636876,7059.42332 L842.713229,7042.76008 C840.230132,7041.03056 838.75,7038.19584 838.75,7035.16979 L838.75,7035.16979 L838.75,6992.84502 C838.75,6989.81136 840.237534,6986.97052 842.730894,6985.24245 L842.730894,6985.24245 L866.794975,6968.56438 C868.379649,6967.46609 870.221865,6966.91694 872.064081,6966.91694 Z" id="Rectangle-Copy-8"></path>
        </g>
    </g>
</svg>