<svg width="21" height="18" xmlns="http://www.w3.org/2000/svg">
    <path d="M16.096 17.582c1.282-.462 2.275-1.112 2.978-1.948.703-.837 1.112-1.825 1.226-2.964.114-1.14-.077-2.393-.572-3.76l-.615-1.69c-.286-.774-.67-1.329-1.152-1.664-.482-.336-.938-.425-1.367-.269-.215.078-.287.221-.215.43l.283.732c.059.17.067.31.024.42a.367.367 0 0 1-.22.225.386.386 0 0 1-.322-.025c-.104-.055-.185-.167-.244-.337l-.185-.488c-.163-.462-.427-.784-.791-.967a1.418 1.418 0 0 0-1.153-.058c-.358.13-.481.355-.37.674l.37 1.015c.066.17.077.31.035.42a.367.367 0 0 1-.22.225.375.375 0 0 1-.322-.03c-.105-.058-.19-.172-.254-.341l-.342-.938c-.189-.508-.46-.841-.81-1-.352-.16-.727-.168-1.124-.025-.358.13-.481.355-.37.674l.732 1.982c.058.176.065.319.02.43a.385.385 0 0 1-.216.224.427.427 0 0 1-.322-.029c-.104-.052-.185-.166-.244-.342l-2.412-6.62c-.124-.326-.318-.556-.581-.69a.978.978 0 0 0-.816-.043c-.306.11-.517.3-.634.571-.118.27-.114.571.01.903l3.505 9.649c.046.117.049.216.01.298a.297.297 0 0 1-.166.16c-.143.046-.296-.016-.459-.185L6.418 9.662c-.182-.195-.37-.32-.562-.376a1.01 1.01 0 0 0-.61.025c-.306.117-.52.302-.64.556a.952.952 0 0 0-.034.772c.04.104.082.197.127.278a.953.953 0 0 0 .156.21l2.989 3.74c1.256 1.57 2.59 2.544 4.004 2.925 1.412.38 2.828.31 4.248-.21zm-15.4-5.83a.622.622 0 0 0 .614-.635c.046-1.647.4-3.102 1.06-4.365.66-1.263 1.554-2.26 2.68-2.988l-.448-1.221a9.23 9.23 0 0 0-2.388 2.114A9.693 9.693 0 0 0 .627 7.562C.249 8.65.06 9.828.06 11.098c0 .175.066.33.196.464.13.133.277.196.44.19z" fill="#FFF" fill-rule="nonzero"/>
</svg>
