<svg width="190" height="275" viewBox="0 0 190 275" xmlns="http://www.w3.org/2000/svg">
    <defs>
        <linearGradient x1="50%" y1="15.352%" x2="50%" y2="100%" id="a">
            <stop stop-color="#FFEA7D" offset="0%"/>
            <stop stop-color="#D67928" offset="54.647%"/>
            <stop stop-color="#B94B04" offset="100%"/>
        </linearGradient>
    </defs>
    <path d="M463 9128.917a9.24 9.24 0 0 1 5.27 1.647l85 58.911a9.25 9.25 0 0 1 3.98 7.603v136.716a9.25 9.25 0 0 1-3.998 7.614l-85.443 58.926a9.24 9.24 0 0 1-5.273 1.635 9.24 9.24 0 0 1-5.265-1.66l-84.558-58.896a9.25 9.25 0 0 1-3.963-7.59v-136.745a9.25 9.25 0 0 1 3.98-7.603l85-58.91a9.24 9.24 0 0 1 5.27-1.648z" transform="translate(-368 -9128)" fill="#0D1017" stroke="url(#a)" stroke-width="1.5" fill-rule="evenodd"/>
</svg>
