<svg width="31" height="26" xmlns="http://www.w3.org/2000/svg">
    <defs>
        <filter x="-42.1%" y="-57.1%" width="184.2%" height="214.3%" filterUnits="objectBoundingBox" id="a">
            <feOffset in="SourceAlpha" result="shadowOffsetOuter1"/>
            <feGaussianBlur stdDeviation="2" in="shadowOffsetOuter1" result="shadowBlurOuter1"/>
            <feColorMatrix values="0 0 0 0 0 0 0 0 0 0 0 0 0 0 0 0 0 0 0.5 0" in="shadowBlurOuter1" result="shadowMatrixOuter1"/>
            <feMerge>
                <feMergeNode in="shadowMatrixOuter1"/>
                <feMergeNode in="SourceGraphic"/>
            </feMerge>
        </filter>
    </defs>
    <g filter="url(#a)" transform="translate(6 6)" fill="#FFD692" fill-rule="nonzero">
        <path d="M18.877 3.091c0-1.64-1.229-2.96-2.747-2.96A136.864 136.864 0 0 0 9.836 0h-.668C7.03 0 4.929.036 2.873.131 1.359.131.13 1.458.13 3.1A52.472 52.472 0 0 0 0 6.992a54.735 54.735 0 0 0 .126 3.897c0 1.641 1.229 2.972 2.743 2.972 2.16.098 4.376.142 6.629.138 2.256.008 4.465-.036 6.628-.138 1.518 0 2.747-1.331 2.747-2.972.089-1.301.13-2.599.126-3.9a52.622 52.622 0 0 0-.122-3.898zM7.683 10.57V3.405l5.382 3.58-5.382 3.584z"/>
    </g>
</svg>
